<?xml version="1.0" encoding="utf-8"?>
<!-- Generator: Adobe Illustrator 21.1.0, SVG Export Plug-In . SVG Version: 6.00 Build 0)  -->
<svg version="1.1" id="Calque_1" xmlns="http://www.w3.org/2000/svg" xmlns:xlink="http://www.w3.org/1999/xlink" x="0px" y="0px"
	 viewBox="0 0 682.4 160.9" style="enable-background:new 0 0 682.4 160.9;" xml:space="preserve">
<style type="text/css">
	.st0{fill:#F3705B;}
	.st1{fill:#F15640;}
	.st2{display:none;}
	.st3{display:inline;fill:#F15640;}
	.st4{display:inline;fill:#FFD15D;}
	.st5{display:inline;fill:#F3705B;}
	.st6{display:inline;fill:#F7B64C;}
</style>
<circle class="st0" cx="341.5" cy="80.5" r="80.5"/>
<path class="st1" d="M341.5,27.3c39.5,0,72.3,28.6,79.1,66.8c1.4-4.1,1.4-8.2,1.4-13.6C422,36.8,386.5,0,341.5,0
	s-80.5,35.5-80.5,80.5c0,4.1,0,8.2,1.4,13.6C269.2,55.9,302,27.3,341.5,27.3z"/>
<circle class="st0" cx="80.5" cy="80.5" r="80.5"/>
<path class="st1" d="M80.5,27.3c39.5,0,72.3,28.6,79.1,66.8c1.4-4.1,1.4-8.2,1.4-13.6C160.9,36.8,125.4,0,80.5,0S0,35.5,0,80.5
	c0,4.1,0,8.2,1.4,13.6C8.2,55.9,40.9,27.3,80.5,27.3z"/>
<circle class="st0" cx="601.9" cy="80.5" r="80.5"/>
<path class="st1" d="M601.9,27.3c39.5,0,72.3,28.6,79.1,66.8c1.4-4.1,1.4-8.2,1.4-13.6c0-43.6-35.5-80.5-80.5-80.5
	c-45,0-80.5,35.5-80.5,80.5c0,4.1,0,8.2,1.4,13.6C529.7,55.9,562.4,27.3,601.9,27.3z"/>
<g id="Calque_2" class="st2">
	<circle class="st3" cx="906" cy="-32" r="62.9"/>
	<circle class="st4" cx="906" cy="108.8" r="62.9"/>
	<path class="st5" d="M906-74.7c-30.9,0-56.5,22.4-61.9,52.3c5.3,29.9,30.9,52.3,61.9,52.3s56.5-22.4,61.9-52.3
		C962.5-52.3,936.9-74.7,906-74.7z"/>
	<path class="st6" d="M906,67.2c30.9,0,56.5,22.4,61.9,52.3c1.1-3.2,1.1-6.4,1.1-10.7c0-34.1-27.7-62.9-62.9-62.9
		s-62.9,27.7-62.9,62.9c0,3.2,0,6.4,1.1,10.7C849.5,89.6,875.1,67.2,906,67.2z"/>
</g>
</svg>
