<?xml version="1.0" encoding="utf-8"?>
<!-- Generator: Adobe Illustrator 21.1.0, SVG Export Plug-In . SVG Version: 6.00 Build 0)  -->
<svg version="1.1" id="Layer_1" xmlns="http://www.w3.org/2000/svg" xmlns:xlink="http://www.w3.org/1999/xlink" x="0px" y="0px"
	 viewBox="0 0 512 512" style="enable-background:new 0 0 512 512;" xml:space="preserve">
<style type="text/css">
	.st0{fill:#191919;}
	.st1{fill:#FFFFFF;stroke:#000000;stroke-width:0.894;}
</style>
<path class="st0" d="M473.7,423.7H38.3C17.2,423.7,0,406.6,0,385.4V126.6c0-21.2,17.2-38.3,38.3-38.3h435.3
	c21.2,0,38.3,17.2,38.3,38.3v258.8C512,406.6,494.8,423.7,473.7,423.7z"/>
<g id="g3061">
	<path id="path3065" class="st1" d="M199.4,197.5c2.7-8,0-22.4,0.9-31.3c0.9-5.4,4.5-10.7,7.2-16.1c1.8-5.4,4.5-12.5,10.7-14.3
		c-1.8,5.4-2.7,5.4-4.5,9.8l-2.7,9.8c-1.8,4.5-4.5,6.3-5.4,10.7c-1.8,6.3-0.9,21.5-0.9,28.6c0,1.8,0,4.5-1.8,6.3
		c-2.7,3.6-10.7,0.9-9.8,9.8c0,0.9,0,2.7,0.9,3.6c3.6,8,17.9,10.7,25,14.3c7.2,4.5,5.4,8.9,12.5,13.4c7.2,5.4,25.9,5.4,34.9,4.5
		c2.7-0.9,7.2-0.9,9.8-2.7c7.2-2.7,8-9.8,15.2-14.3c5.4-2.7,17-4.5,22.4-12.5c0.9-0.9,1.8-2.7,1.8-3.6c2.7-9.8-8.9-6.3-11.6-12.5
		c-1.8-4.5,0.9-18.8,1.8-23.2l2.7,2.7v8l0.9,8.9c9.8-1.8,8.9-13.4,9.8-21.5c1.8-21.5,1.8-34.9-13.4-51.9
		c-8.9-8.9-20.6-16.1-33.1-17.9h-8l-6.3-0.9l-7.2,0.9c-11.6,0.9-19.7,0.9-29.5,6.3c-7.2,3.6-11.6,8-17,14.3
		c-13.4,14.3-16.1,32.2-13.4,51C192.3,184.9,194.1,193,199.4,197.5z M228.9,170.6c12.5-0.9,21.5,8,17,20.6
		c-3.6,8-11.6,14.3-20.6,16.1c-8,0.9-11.6-4.5-11.6-11.6C213.7,184.1,215.5,174.2,228.9,170.6z M279,170.6c10.7,0,16.1,8.9,17,18.8
		c0,2.7,0.9,5.4,0.9,7.2c-0.9,6.3-7.2,10.7-13.4,11.6c-9.8,0-21.5-15.2-20.6-24.1C264.7,176,271.9,172.4,279,170.6z M262.9,225.2
		l-9.8-1.8l-8,2.7c-0.9-6.3,1.8-15.2,4.5-21.5c0.9-1.8,2.7-5.4,4.5-6.3c3.6-0.9,4.5,3.6,4.5,5.4C260.2,210.9,262.9,218,262.9,225.2z
		"/>
	<path id="path3067" class="st1" d="M297.8,239.5c-2.7,0.9-6.3,0.9-8.9,2.7c-8.9,6.3-4.5,21.5-12.5,31.3c-3.6,4.5-11.6,6.3-17.9,6.3
		c-11.6,0-25.9-0.9-31.3-12.5c-4.5-8,1.8-16.1-8-25.9c-1.8-0.9-4.5-3.6-6.3-3.6c-2.7,0-1.8,3.6-1.8,5.4l0.9,17.9
		c0,13.4,3.6,13.4,9.8,21.5c3.6,5.4,6.3,10.7,12.5,13.4c8,2.7,17,2.7,25,1.8c6.3,0,9.8,0.9,16.1-2.7c6.3-3.6,17-17.9,18.8-25
		l0.9-12.5C296.9,248.4,297.8,250.2,297.8,239.5L297.8,239.5z"/>
	<path id="path3069" class="st1" d="M461.4,146.5c-13.4,18.8-28,34.7-43.8,53.6l-21.5,24.1c-17.9,17-62.6,50.1-83.1,63.5
		c-11.6,8-24.1,14.3-36.7,19.7l-16.3,7.9c2.7,2.7,7.7,4.1,12.2,6.3c2.7,0,12.2-5.2,14.9-7l28.6-16.1c5.4-3.6,10.7-8,17-8.9
		c-2.7,6.3-8.9,9.8-15.2,13.4l-17,9.8c0,0-17.8,10.2-20.3,11.9c4.9,1.9,12.2,4.1,16.9,6c4.5,0,10.5-4.5,14.1-6.3
		c9.8-5.4,22.4-13.4,32.2-20.6l16.1-10.7c12.5-9.8,25-20.6,36.7-32.2c8.9-8,17.9-16.1,25-25.9c9.8-11.6,16.1-25,23.2-38.4
		c8-12.5,10.7-20.6,15.2-34C460.5,158.1,463.2,151,461.4,146.5L461.4,146.5z"/>
	<path id="path3071" class="st1" d="M51,142c-2.7,9.8,0.9,21.5,4.5,30.4c8,21.5,21.5,40.2,34.9,58.1c8,11.6,21.5,25.9,31.3,35.8
		l10.7,8.9l23.2,20.6c18.8,14.3,53.6,35.8,75.1,45.6l28.6,12.5l11.6,4.5c13.4,5.4,26.8,8.9,41.1,11.6c8,1.8,17,4.5,25,4.5
		c-2.7-9.8-8-8.9-16.1-11.6l-29.5-11.6c-41.1-17-86.7-34-118.9-66.2c6.3,0,10.7,5.4,15.2,8.9c6.3,4.5,14.3,9.8,21.5,14.3
		c19.7,11.6,64.4,32.2,86.7,40.2c8.9,3.6,24.1,9.8,33.1,9.8c7.2,0.9,17-3.6,22.4-7.2c-3.6-3.6-7.2-2.7-12.5-3.6l-27.7-8
		c-24.1-6.3-47.4-15.2-69.7-26.8l-12.5-5.4l-17-10.7l-20.6-13.4l-21.5-17l-36.7-28.6l-34-34.9l-17-19.7l-17.9-19.7L51,142L51,142z"
		/>
	<path id="path3073" class="st1" d="M338,362.9c1.8,3.6,5.4,8.9,5.4,13.4c0,9.8-11.6,18.8-20.6,17.9c-3.6-0.9-11.6-5.4-14.3,0
		c-0.9,1.8-0.9,3.6,0,4.5c0,3.6,4.5,5.4,8,7.2c9.8,2.7,20.6-0.9,28.6-6.3c6.3-3.6,10.7-9.8,12.5-17l1.8-11.6
		c0.9-3.6,4.5-4.5,8.9-10.7c5.4-7.2,10.7-19.7,17.9-25c2.7-1.8,5.4-2.7,8.9-3.6c-1.8-2.7-3.6-4.5-5.4-7.2c-1.8-0.9-3.6-2.7-5.4-2.7
		c-2.7-0.9-6.3-0.9-8.9,0.9c-12.5,6.3-9.8,17.9-17,26.8C353.2,356.6,347,360.2,338,362.9L338,362.9z"/>
	<path id="path3075" class="st1" d="M366.6,374.5c6.3,2.7,11.6,1.8,17.9,1.8l13.4,0.9c6.3,0,8-3.6,10.7-8.9c0.9-1.8,1.8-5.4,0-7.2
		c-1.8-1.8-5.4-1.8-8-1.8l-15.2,0.9c-2.7,0-7.2,0-9.8,0.9C371.1,363.8,367.5,370,366.6,374.5L366.6,374.5z"/>
	<path id="path3077" class="st1" d="M414.9,387c-4.5-1.8-7.2-3.6-9.8-7.2c-0.9,0.9-1.8,0.9-2.7,1.8
		C401.5,386.1,413.1,396.8,414.9,387z"/>
	<path id="path3079" class="st1" d="M408.6,356.6l7.2,4.5c-1.8,3.6-6.3,10.7-5.4,15.2c0.9,8.9,13.4,8.9,18.8,3.6
		c6.3-7.2,6.3-17.9-2.7-23.2C421.2,353.9,414.9,354.8,408.6,356.6z"/>
	<path id="path3081" class="st1" d="M87.7,381.6l0.9,0.9c7.2-1.8,11.6-4.5,12.5-11.6C95.7,371.8,90.4,377.2,87.7,381.6z"/>
	<path id="path3083" class="st1" d="M93.9,348.6c-2.7-1.8-5.4-2.7-8.9-2.7c-2.7,0-5.4,0-8,0.9c-8.9,3.6-9.8,17.9-2.7,24.1
		c3.6,3.6,12.5,5.4,16.1,0.9c3.6-3.6,2.7-8,0.9-12.5c-0.9-2.7-2.7-6.3-0.9-8C91.3,349.5,93.1,349.5,93.9,348.6z"/>
	<path id="path3085" class="st1" d="M93.1,352.1c0.9,2.7,5.4,13.4,7.2,15.2c2.7,1.8,5.4,1.8,8,1.8l16.1-0.9H136c0-2.7,0-5.4-0.9-7.2
		c-2.7-7.2-12.5-10.7-19.7-10.7l-8,0.9C102,351.2,97.5,350.3,93.1,352.1z"/>
	<path id="path3087" class="st1" d="M110,323.5c17,4.5,17,18.8,24.1,28.6c2.7,3.6,9.8,8.9,10.7,12.5c0.9,2.7,0,3.6,0.9,9.8
		c1.8,8,7.2,16.1,14.3,20.6c8,5.4,15.2,8.9,25,6.3c5.4-1.8,10.7-5.4,8-11.6c-2.7-6.3-12.5,0-18.8-1.8c-6.3-2.7-13.4-11.6-13.4-18.8
		l3.6-12.5c-9.8-3.6-21.5-11.6-25.9-21.5c-2.7-6.3-2.7-15.2-7.2-19.7C123.4,309.2,112.7,314.6,110,323.5L110,323.5z"/>
	<path id="path3089" class="st1" d="M153,344.1c2.7,3.6,4.5,4.5,8,6.3c12.5,7.2,20.6,1.8,33.1-0.9l25.9-8
		c-3.4-2.3-11.1-7.1-14.3-8.9l-17,4.5L153,344.1z"/>
	<path id="path3091" class="st1" d="M165.5,370c23.2,0,44.7-7.2,67.1-12.5c0,0,9.8-4.7,13.1-4.7c-3.1-2.3-15.8-6.8-17.7-8.6
		c-2.7,0.8-13.3,4.3-16.8,5.2l-22.4,6.3l-10.7,2.7C171.7,361.1,167.3,362,165.5,370z"/>
	<path id="path3093" class="st1" d="M234.3,267.2c0,2.2,0.2,4.9,1.1,6.3c0.9,1.3,4.3,1.5,5.1,0.9c0.7-0.7-0.7-4.2-1.5-5.3
		S237,267.6,234.3,267.2z"/>
	<path id="path3095" class="st1" d="M241.5,268.1l0.9,4.5c0,0.9,0.9,2.7,1.8,3.6c3.6,1.8,5.4-7.2,2.7-8
		C245,267.2,243.3,268.1,241.5,268.1z"/>
	<path id="path3097" class="st1" d="M252.2,269c-2.7,1.8-2.8,5.1-1.8,6.8c1,1.7,3.1,1.7,4.4,1.3c0.9-0.4,2.2-2.7,2.3-4.7
		C257.3,270.3,256.2,268.5,252.2,269z"/>
	<path id="path3099" class="st1" d="M242.4,257.4c2.4,1.2,6.4-0.1,6.4-0.1l-0.2-5.3c-0.9-3.6-3.6-4.5-5.4-2.7
		C242.4,251.1,242.4,255.6,242.4,257.4z"/>
	<path id="path3101" class="st1" d="M255.8,248.4c-0.9,0-3.7-0.5-4.6,0.4c-1.7,1.8-2.6,7.6,0.1,9.4c1.7,0.4,4.5,0.8,5.4-2.8v-2.6
		C256.7,252.9,256.6,250,255.8,248.4z"/>
	<path id="path3103" class="st1" d="M264.7,277c0.8,0.4,1.8-0.9,2.7-1.8c6.3-6.3-6.8-11.3-4.5-1.8
		C262.9,273.5,263.8,276.9,264.7,277z"/>
	<path id="path3105" class="st1" d="M239.4,247.5c-0.9-0.3-2.4,0-3.3,0c-7,3.1,1.8,15.2,4.5,7.2c0-0.9,0-1.8,0-2.7
		C240.6,252,240.1,247.8,239.4,247.5z"/>
	<path id="path3107" class="st1" d="M259.3,248.4c0,0-1.5,9.1-0.9,9.8c1.2,0.6,4.8,0.5,6.1-0.5c0-2.7,0.2-5.8-0.4-7.5
		C263.6,248.7,262.5,248.9,259.3,248.4L259.3,248.4z"/>
	<path id="path3109" class="st1" d="M267.9,247.4l-0.5,4.6c0,2.7,0.6,7.9,4.2,5.2c0.4-0.4,1.7-5.8,1.2-8.2
		C271.8,247.7,270.1,247.6,267.9,247.4z"/>
</g>
</svg>
