<?xml version="1.0" encoding="iso-8859-1"?>
<!--Generator: Adobe Illustrator 19.0.0, SVG Export Plug-In . SVG Version: 6.00 Build 0)-->
<svg xmlns="http://www.w3.org/2000/svg" xmlns:xlink="http://www.w3.org/1999/xlink" id="Layer_1" x="0px" y="0px" style="enable-background:new 0 0 411.223 411.223;" version="1.1" viewBox="0 0 411.223 411.223" xml:space="preserve">
    <g>
        <g>
            <g id="XMLID_27_">
                <g>
                    <path d="M405.169,352.183c0,0.04,0,0.08,0,0.13c-40.37,36.61-93.96,58.91-152.74,58.91
					c-58.79,0-112.38-22.3-152.75-58.91c0-0.05,0-0.09,0-0.13c0-60.89,35.63-113.45,87.17-137.98
					c19.37,19.32,42.05,29.73,65.58,29.73c23.54,0,46.21-10.41,65.59-29.73C369.559,238.733,405.169,291.293,405.169,352.183z" style="fill:#1EA6C6;"/>
                    <path d="M252.429,21.883c46.66,0,84.49,37.82,84.49,84.48c0,46.67-37.83,110.49-84.49,110.49
					s-84.49-63.82-84.49-110.49C167.939,59.703,205.769,21.883,252.429,21.883z" style="fill:#FCD09F;"/>
                </g>
            </g>
        </g>
        <g>
            <g id="XMLID_22_">
                <g>
                    <path d="M181.224,187.15c2.59,3.69,5.27,7.15,8.04,10.4l-8.43,4.01c-28.06,13.35-51.8,34.24-68.67,60.41
					c-13.72,21.29-22.32,45.29-25.31,70.31c-30.49-8.31-58.05-23.72-80.8-44.35v-0.11c0-53.06,31.05-98.86,75.96-120.24
					c16.88,16.84,36.64,25.91,57.14,25.91c13.43,0,26.55-3.89,38.74-11.31C178.964,183.86,180.084,185.52,181.224,187.15z" style="fill:#EF806F;"/>
                    <path d="M153.944,106.36c0,17.54,4.56,36.84,12.68,54.98c-8.49,5.38-17.76,8.55-27.47,8.55
					c-40.66,0-73.62-55.61-73.62-96.28c0-40.66,32.96-73.61,73.62-73.61c22.55,0,42.74,10.14,56.24,26.11
					C170.324,43.99,153.944,73.3,153.944,106.36z" style="fill:#EFC59C;"/>
                </g>
            </g>
        </g>
    </g>
    <g/>
    <g/>
    <g/>
    <g/>
    <g/>
    <g/>
    <g/>
    <g/>
    <g/>
    <g/>
    <g/>
    <g/>
    <g/>
    <g/>
    <g/>
</svg>
