<?xml version="1.0" encoding="utf-8"?>
<!-- Generator: Adobe Illustrator 21.1.0, SVG Export Plug-In . SVG Version: 6.00 Build 0)  -->
<svg version="1.1" id="Layer_1" xmlns="http://www.w3.org/2000/svg" xmlns:xlink="http://www.w3.org/1999/xlink" x="0px" y="0px"
	 viewBox="0 0 512 512" style="enable-background:new 0 0 512 512;" xml:space="preserve">
<style type="text/css">
	.st0{fill:#FDDF7F;}
	.st1{display:none;}
	.st2{display:inline;fill:#00537B;}
</style>
<polygon class="st0" points="434.1,213.2 297.3,213.2 398.3,10.2 220.1,10.2 99.8,252 202.2,252 77.9,501.8 "/>
<g class="st1">
	<path class="st2" d="M77.9,512c-2.3,0-4.5-0.7-6.4-2.2c-3.7-3-4.9-8.2-2.8-12.5l117-235.1H99.8c-3.5,0-6.8-1.8-8.7-4.8
		c-1.9-3-2-6.8-0.5-9.9L211,5.7c1.7-3.5,5.3-5.7,9.1-5.7h178.1c3.5,0,6.8,1.8,8.7,4.8c1.9,3,2,6.8,0.5,9.9L313.7,203h120.4
		c4.3,0,8.2,2.7,9.6,6.8c1.4,4.1,0.2,8.6-3.2,11.3L84.3,509.7C82.4,511.2,80.1,512,77.9,512z M116.3,241.8h85.9
		c3.5,0,6.8,1.8,8.7,4.8c1.9,3,2,6.8,0.5,9.9L107.9,464.3l297.4-241H297.3c-3.5,0-6.8-1.8-8.7-4.8c-1.9-3-2-6.8-0.5-9.9l93.7-188.3
		H226.5L116.3,241.8z"/>
	<path class="st2" d="M335.6,261.7c-3,0-5.9-1.3-7.9-3.8c-3.5-4.4-2.9-10.8,1.5-14.3l7.1-5.8c4.4-3.5,10.8-2.9,14.3,1.5
		s2.9,10.8-1.5,14.3l-7.1,5.8C340.1,260.9,337.8,261.7,335.6,261.7z"/>
	<path class="st2" d="M249.4,331.5c-3,0-5.9-1.3-7.9-3.8c-3.5-4.4-2.9-10.8,1.5-14.3l61.7-50c4.4-3.5,10.8-2.9,14.3,1.5
		c3.5,4.4,2.9,10.8-1.5,14.3l-61.7,50C253.9,330.7,251.6,331.5,249.4,331.5z"/>
</g>
</svg>
