<?xml version="1.0" encoding="utf-8"?>
<!-- Generator: Adobe Illustrator 21.1.0, SVG Export Plug-In . SVG Version: 6.00 Build 0)  -->
<svg version="1.1" id="Layer_1" xmlns="http://www.w3.org/2000/svg" xmlns:xlink="http://www.w3.org/1999/xlink" x="0px" y="0px"
	 viewBox="0 0 349.4 319.6" style="enable-background:new 0 0 349.4 319.6;" xml:space="preserve">
<style type="text/css">
	.st0{fill:#FF7058;}
	.st1{fill:#F1543F;}
	.st2{fill:#FFFFFF;}
	.st3{fill:#E6E9EE;}
</style>
<path class="st0" d="M126.2,0C56.5,0,0,43.6,0,97.3C0,118,8.4,137.2,22.7,153L8,209.6l52.5-29.1c19.1,9,41.6,14.2,65.7,14.2
	c69.7,0,126.2-43.6,126.2-97.3C252.4,43.6,195.9,0,126.2,0z"/>
<g>
	<circle class="st1" cx="57.9" cy="96.4" r="17"/>
	<circle class="st1" cx="126.2" cy="96.4" r="17"/>
	<circle class="st1" cx="194.5" cy="96.4" r="17"/>
</g>
<path class="st2" d="M223.2,110c69.7,0,126.2,43.6,126.2,97.3c0,20.7-8.4,39.9-22.7,55.7l14.7,56.6l-52.5-29.1
	c-19.1,9-41.6,14.2-65.7,14.2c-69.7,0-126.2-43.6-126.2-97.3C97,153.6,153.5,110,223.2,110z"/>
<g>
	<circle class="st3" cx="154.9" cy="207.2" r="17"/>
	<circle class="st3" cx="223.2" cy="207.2" r="17"/>
	<circle class="st3" cx="291.5" cy="207.2" r="17"/>
</g>
</svg>
