<?xml version="1.0" encoding="utf-8"?>
<!-- Generator: Adobe Illustrator 21.1.0, SVG Export Plug-In . SVG Version: 6.00 Build 0)  -->
<svg version="1.1" id="Layer_1" xmlns="http://www.w3.org/2000/svg" xmlns:xlink="http://www.w3.org/1999/xlink" x="0px" y="0px"
	 viewBox="0 0 512 477" style="enable-background:new 0 0 512 477;" xml:space="preserve">
<style type="text/css">
	.st0{fill:#FDFF87;}
</style>
<path class="st0" d="M472.6,4.4H39.4C17.7,4.4,0,22.1,0,43.8v275.7c0,21.7,17.7,39.4,39.4,39.4h78.8V477l147.7-118.2h206.8
	c21.7,0,39.4-17.7,39.4-39.4V43.8C512,22.1,494.3,4.4,472.6,4.4z M255,157c0,36.5-11,63.5-29.5,82c-15,15-37.5,24-56,24
	c-13.5,0-19-8-19-17c0-9,6.5-14.5,15-16.5C191,223.5,205,206,204,182c-17.5-4.5-35-19.5-35-41v-1c0-23.5,16.5-41,41.5-41
	c28,0,44.5,21.5,44.5,56V157z M372.5,157c0,36.5-11,63.5-29.5,82c-15,15-37.5,24-56,24c-13.5,0-19-8-19-17c0-9,6.5-14.5,15-16.5
	c25.5-6,39.5-23.5,38.5-47.5c-17.5-4.5-35-19.5-35-41v-1c0-23.5,16.5-41,41.5-41c28,0,44.5,21.5,44.5,56V157z"/>
</svg>
