<?xml version="1.0" encoding="utf-8"?>
<!-- Generator: Adobe Illustrator 21.1.0, SVG Export Plug-In . SVG Version: 6.00 Build 0)  -->
<svg version="1.1" id="Layer_1" xmlns="http://www.w3.org/2000/svg" xmlns:xlink="http://www.w3.org/1999/xlink" x="0px" y="0px"
	 viewBox="0 0 512 631.7" style="enable-background:new 0 0 512 631.7;" xml:space="preserve">
<style type="text/css">
	.st0{fill:#FDFF87;}
</style>
<title>down</title>
<path class="st0" d="M256,480.4c30.3,0,54.9-24.6,54.9-54.9s-24.6-54.9-54.9-54.9s-54.9,24.6-54.9,54.9l0,0
	C201.1,455.9,225.7,480.4,256,480.4C256,480.4,256,480.4,256,480.4"/>
<path class="st0" d="M356.6,370.7c30.3,0,54.9-24.6,54.9-54.9S386.9,261,356.6,261s-54.9,24.6-54.9,54.9v0
	C301.7,346.2,326.3,370.7,356.6,370.7C356.6,370.7,356.6,370.7,356.6,370.7"/>
<path class="st0" d="M457.1,261c30.3,0,54.9-24.6,54.9-54.9s-24.6-54.9-54.9-54.9s-54.9,24.6-54.9,54.9c0,0,0,0,0,0
	C402.3,236.4,426.8,261,457.1,261C457.1,261,457.1,261,457.1,261"/>
<path class="st0" d="M155.4,370.7c30.3,0,54.9-24.6,54.9-54.9c0-30.3-24.6-54.9-54.9-54.9s-54.9,24.6-54.9,54.9l0,0
	C100.6,346.2,125.1,370.7,155.4,370.7C155.4,370.7,155.4,370.7,155.4,370.7"/>
<path class="st0" d="M54.9,261c30.3,0,54.9-24.6,54.9-54.9c0-30.3-24.6-54.9-54.9-54.9S0,175.8,0,206.1c0,0,0,0,0,0
	C0,236.4,24.5,261,54.9,261C54.8,261,54.9,261,54.9,261"/>
</svg>
