<svg id="Layer_1" data-name="Layer 1" xmlns="http://www.w3.org/2000/svg" viewBox="0 0 512 631.71"><defs><style>.cls-1{fill:#fdff87;}</style></defs><title>down</title><path class="cls-1" d="M257.57,632.28a54.86,54.86,0,1,0-54.86-54.86,54.85,54.85,0,0,0,54.86,54.86" transform="translate(-1.57 -0.57)"/><path class="cls-1" d="M358.14,522.57a54.86,54.86,0,1,0-54.86-54.86,54.85,54.85,0,0,0,54.86,54.86" transform="translate(-1.57 -0.57)"/><path class="cls-1" d="M458.71,412.85A54.86,54.86,0,1,0,403.85,358a54.85,54.85,0,0,0,54.86,54.86" transform="translate(-1.57 -0.57)"/><path class="cls-1" d="M157,522.57a54.86,54.86,0,1,0-54.86-54.86A54.85,54.85,0,0,0,157,522.57" transform="translate(-1.57 -0.57)"/><path class="cls-1" d="M56.43,412.85A54.86,54.86,0,1,0,1.57,358a54.85,54.85,0,0,0,54.86,54.86" transform="translate(-1.57 -0.57)"/><path class="cls-1" d="M257.57,329.71a54.86,54.86,0,1,0-54.86-54.86,54.85,54.85,0,0,0,54.86,54.86" transform="translate(-1.57 -0.57)"/><path class="cls-1" d="M358.14,220a54.86,54.86,0,1,0-54.86-54.86A54.85,54.85,0,0,0,358.14,220" transform="translate(-1.57 -0.57)"/><path class="cls-1" d="M458.71,110.28a54.86,54.86,0,1,0-54.86-54.86,54.85,54.85,0,0,0,54.86,54.86" transform="translate(-1.57 -0.57)"/><path class="cls-1" d="M157,220a54.86,54.86,0,1,0-54.86-54.86A54.85,54.85,0,0,0,157,220" transform="translate(-1.57 -0.57)"/><path class="cls-1" d="M56.43,110.28A54.86,54.86,0,1,0,1.57,55.43a54.85,54.85,0,0,0,54.86,54.86" transform="translate(-1.57 -0.57)"/></svg>