<?xml version="1.0" encoding="utf-8"?>
<!-- Generator: Adobe Illustrator 21.1.0, SVG Export Plug-In . SVG Version: 6.00 Build 0)  -->
<svg version="1.1" id="Capa_1" xmlns="http://www.w3.org/2000/svg" xmlns:xlink="http://www.w3.org/1999/xlink" x="0px" y="0px"
	 viewBox="0 0 512 512" style="enable-background:new 0 0 512 512;" xml:space="preserve">
<style type="text/css">
	.st0{fill:#FDFF87;}
</style>
<g>
	<g id="Pencil">
		<g>
			<path class="st0" d="M484.4,27.6C466.7,9.8,443,0,417.9,0s-48.7,9.8-66.5,27.5L68.7,308.7c-1.7,1.7-3,3.7-3.8,5.9l-64,176
				c-2.1,5.7-0.7,12.1,3.4,16.5c3.1,3.2,7.3,5,11.6,5c1.6,0,3.1-0.2,4.7-0.7l159.2-48.8c2.5-0.8,4.8-2.1,6.6-4l297.9-297.9
				C502.2,142.8,512,119.2,512,94C512,68.9,502.2,45.3,484.4,27.6z M161.5,434.6l-59.6,18.3c-3.5-10.2-8.9-19.2-16.3-26.6
				C79.2,420,71.8,415,63.9,411l27.3-75H128v32c0,8.8,7.2,16,16,16h28.2L161.5,434.6z M397,202.7L202,397.7l5.6-26.4
				c1-4.7-0.2-9.6-3.2-13.4c-3-3.8-7.6-5.9-12.4-5.9h-32v-32c0-8.8-7.2-16-16-16h-25.2L309,114.8l0.2,0.2
				c11.7-11.7,27.3-18.2,43.9-18.2s32.2,6.4,43.9,18.2s18.2,27.3,18.2,43.9C415.2,175.4,408.7,191,397,202.7z M461.8,137.9
				l-14.9,14.9c-1.4-22.9-10.9-44.2-27.2-60.5C403.3,76,382,66.5,359,65.1l15-14.9l0,0C385.8,38.4,401.4,32,417.9,32
				s32.2,6.4,43.9,18.2C473.5,61.9,480,77.5,480,94C480,110.6,473.6,126.2,461.8,137.9z M356.7,132.7l-160,160
				c-6.3,6.3-6.3,16.4,0,22.6c3.1,3.1,7.2,4.7,11.3,4.7s8.2-1.6,11.3-4.7l160-160c6.3-6.3,6.3-16.4,0-22.6
				C373,126.4,362.9,126.4,356.7,132.7z"/>
		</g>
	</g>
</g>
</svg>
