<?xml version="1.0" encoding="utf-8"?>
<!-- Generator: Adobe Illustrator 21.1.0, SVG Export Plug-In . SVG Version: 6.00 Build 0)  -->
<svg version="1.1" id="Calque_1" xmlns="http://www.w3.org/2000/svg" xmlns:xlink="http://www.w3.org/1999/xlink" x="0px" y="0px"
	 viewBox="0 0 50.4 15.6" style="enable-background:new 0 0 50.4 15.6;" xml:space="preserve">
<style type="text/css">
	.st0{fill:#BBFF87;}
</style>
<title>enligne</title>
<path class="st0" d="M42.6,0H7.8C3.5,0,0,3.5,0,7.8s3.5,7.8,7.8,7.8c0,0,0,0,0,0h34.8c4.3,0,7.8-3.5,7.8-7.8C50.4,3.5,46.9,0,42.6,0
	z M11.8,10.1v0.3c0,0.2-0.1,0.4-0.3,0.4c0,0-0.1,0-0.1,0H8.6c-0.2,0-0.4-0.1-0.4-0.3c0,0,0-0.1,0-0.1V5.5c0-0.2,0.1-0.4,0.3-0.4
	c0,0,0.1,0,0.1,0h2.7c0.2,0,0.4,0.1,0.4,0.3c0,0,0,0.1,0,0.1v0.3c0,0.2-0.1,0.4-0.3,0.4c0,0-0.1,0-0.1,0H9.5v1h1.3
	c0.2,0,0.4,0.1,0.4,0.3c0,0,0,0.1,0,0.1v0.4c0,0.2-0.1,0.4-0.3,0.4c0,0-0.1,0-0.1,0H9.5v1.1h1.9c0.2,0,0.4,0.1,0.4,0.3
	C11.8,10,11.8,10,11.8,10.1z M17.4,5.5v4.8c0,0.2-0.1,0.4-0.3,0.4c0,0-0.1,0-0.1,0h-0.6c-0.2,0-0.4-0.1-0.5-0.3l-1.4-2.4
	c-0.1-0.1-0.1-0.3-0.2-0.4L14,7.3l-0.1-0.2c0,0.3,0.1,0.7,0.1,1v2.2c0,0.2-0.1,0.4-0.3,0.4c0,0-0.1,0-0.1,0H13
	c-0.2,0-0.4-0.1-0.4-0.4c0,0,0-0.1,0-0.1V5.5c0-0.2,0.1-0.4,0.3-0.4c0,0,0,0,0.1,0h0.6c0.2,0,0.4,0.1,0.5,0.3l1.4,2.4
	c0.1,0.1,0.1,0.3,0.2,0.4L16,8.6L16,8.7C16,8.3,16,8,16,7.7V5.5c0-0.2,0.1-0.4,0.3-0.4c0,0,0.1,0,0.1,0H17c0.2,0,0.4,0.1,0.4,0.3
	C17.4,5.5,17.4,5.5,17.4,5.5z M24.3,10.1v0.3c0,0.2-0.1,0.4-0.3,0.4c0,0-0.1,0-0.1,0H21c-0.2,0-0.4-0.1-0.5-0.3c0,0,0-0.1,0-0.1V5.5
	c0-0.2,0.1-0.4,0.3-0.4c0,0,0.1,0,0.1,0h0.5c0.2,0,0.4,0.1,0.4,0.3c0,0,0,0.1,0,0.1v4.1h1.9c0.2,0,0.4,0.1,0.4,0.3
	C24.3,10,24.3,10,24.3,10.1z M26.2,5.5v4.8c0,0.2-0.1,0.4-0.3,0.4c0,0-0.1,0-0.1,0h-0.5c-0.2,0-0.4-0.1-0.4-0.3c0,0,0-0.1,0-0.1V5.5
	c0-0.2,0.1-0.4,0.3-0.4c0,0,0.1,0,0.1,0h0.5c0.2,0,0.4,0.1,0.4,0.3C26.2,5.5,26.2,5.5,26.2,5.5z M32.5,8v2.3c0,0.2-0.1,0.4-0.3,0.4
	c0,0-0.1,0-0.1,0h-0.3c-0.1,0-0.2,0-0.3-0.1c-0.1-0.1-0.1-0.2-0.1-0.3v-0.1l-0.1,0.1l-0.2,0.1c-0.1,0.1-0.2,0.1-0.3,0.2
	c-0.1,0.1-0.3,0.1-0.4,0.1c-0.2,0-0.4,0.1-0.6,0.1c-0.4,0-0.7-0.1-1.1-0.2c-0.3-0.1-0.6-0.3-0.9-0.6c-0.3-0.3-0.5-0.6-0.6-0.9
	C27.1,8.8,27,8.4,27,8c0-0.4,0.1-0.8,0.2-1.2c0.3-0.7,0.8-1.3,1.6-1.6C29.2,5.1,29.6,5,30.1,5c0.4,0,0.8,0.1,1.1,0.2
	c0.3,0.1,0.5,0.2,0.7,0.3c0.1,0.1,0.2,0.2,0.2,0.3c0,0.1,0,0.2-0.1,0.3l-0.2,0.3c-0.1,0.1-0.2,0.2-0.3,0.2h0c-0.1,0-0.2,0-0.3-0.1
	l-0.3-0.1c-0.1,0-0.2-0.1-0.3-0.1c-0.1,0-0.3,0-0.4,0c-0.3,0-0.5,0-0.7,0.1c-0.2,0.1-0.4,0.2-0.5,0.4c-0.1,0.2-0.2,0.3-0.3,0.5
	c-0.2,0.4-0.2,0.9,0,1.3c0.1,0.2,0.2,0.4,0.3,0.5c0.1,0.1,0.3,0.3,0.5,0.3c0.2,0.1,0.4,0.1,0.6,0.1c0.1,0,0.3,0,0.4,0
	c0.1,0,0.2-0.1,0.3-0.1l0.2-0.1c0.1,0,0.1-0.1,0.1-0.1V8.8h-0.4c-0.2,0-0.4-0.1-0.4-0.3c0,0,0-0.1,0-0.1V8c0-0.2,0.1-0.4,0.3-0.4
	c0,0,0.1,0,0.1,0H32c0.2,0,0.4,0.1,0.4,0.3C32.5,7.9,32.5,8,32.5,8z M38.2,5.5v4.8c0,0.2-0.1,0.4-0.3,0.4c0,0-0.1,0-0.1,0h-0.6
	c-0.2,0-0.4-0.1-0.5-0.3l-1.4-2.4c-0.1-0.1-0.1-0.2-0.2-0.4l-0.2-0.4l-0.1-0.2c0,0.3,0.1,0.7,0.1,1v2.2c0,0.2-0.1,0.4-0.3,0.4
	c0,0-0.1,0-0.1,0h-0.5c-0.2,0-0.4-0.1-0.4-0.3c0,0,0-0.1,0-0.1V5.5c0-0.2,0.1-0.4,0.3-0.4c0,0,0.1,0,0.1,0h0.6
	c0.2,0,0.4,0.1,0.5,0.3l1.4,2.4c0.1,0.1,0.1,0.3,0.2,0.4l0.2,0.4l0.1,0.2c0-0.4-0.1-0.7-0.1-1V5.5c0-0.2,0.1-0.4,0.3-0.4
	c0,0,0.1,0,0.1,0h0.5c0.2,0,0.4,0.1,0.4,0.3C38.2,5.5,38.2,5.5,38.2,5.5z M43,10.1v0.3c0,0.2-0.1,0.4-0.3,0.4c0,0-0.1,0-0.1,0h-2.8
	c-0.2,0-0.4-0.1-0.4-0.3c0,0,0-0.1,0-0.1V5.5c0-0.2,0.1-0.4,0.3-0.4c0,0,0.1,0,0.1,0h2.7c0.2,0,0.4,0.1,0.4,0.3c0,0,0,0.1,0,0.1v0.3
	c0,0.2-0.1,0.4-0.3,0.4c0,0-0.1,0-0.1,0h-1.7v1H42c0.2,0,0.4,0.1,0.4,0.3c0,0,0,0.1,0,0.1v0.4c0,0.2-0.1,0.4-0.3,0.4
	c0,0-0.1,0-0.1,0h-1.3v1.1h1.8c0.2,0,0.4,0.1,0.4,0.3C43,10,43,10,43,10.1z"/>
</svg>
