<?xml version="1.0" encoding="iso-8859-1"?>
<!-- Generator: Adobe Illustrator 19.0.0, SVG Export Plug-In . SVG Version: 6.00 Build 0)  -->
<svg version="1.1" id="Layer_1" xmlns="http://www.w3.org/2000/svg" xmlns:xlink="http://www.w3.org/1999/xlink" x="0px" y="0px"
	 viewBox="0 0 512 512" style="enable-background:new 0 0 512 512;" xml:space="preserve">
<path style="fill:#FFDB6F;" d="M503.999,108.561L280,234.72c-14.606,8.21-32.435,8.21-47.04,0L8,108.561
	c-4.97-2.869-8.023-8.181-8-13.92l0,0C0,82.137,10.136,72,22.64,72h466.72C501.863,72,512,82.136,512,94.64l0,0l0,0
	C512.022,100.379,508.97,105.691,503.999,108.561z"/>
<path style="fill:#FFCB5B;" d="M503.999,108.561L280,234.72c-14.606,8.21-32.435,8.21-47.04,0L8,108.561
	c-4.97-2.869-8.023-8.181-8-13.92v322.72C0,429.863,10.136,440,22.64,440l0,0h466.72c12.503,0,22.64-10.136,22.64-22.64l0,0V96.001
	c0,0,0-0.48,0-0.8C511.826,100.739,508.8,105.792,503.999,108.561z"/>
<path style="fill:#F7B84E;" d="M511.999,95.201c-0.173,5.538-3.2,10.592-8,13.36L280,234.72c-14.606,8.21-32.435,8.21-47.04,0
	l-11.52-6.48l0,0L8,108.561c-1.196-0.682-2.298-1.516-3.279-2.48c-0.817-0.825-1.541-1.737-2.16-2.72v-0.4
	c-1.466-2.416-2.266-5.175-2.32-8H0v1.04v16c-0.011,5.528,2.832,10.67,7.52,13.6l205.44,128c0.669,2.875-0.176,5.891-2.24,8
	c-3.5,3.372-3.602,8.944-0.229,12.443c1.152,1.195,2.618,2.04,4.229,2.437c4.727,1.13,7.642,5.879,6.512,10.605
	c-0.074,0.31-0.165,0.615-0.272,0.914c-1.462,4.635,1.109,9.578,5.744,11.04c1.724,0.544,3.573,0.544,5.295,0
	c4.672-1.339,9.545,1.364,10.884,6.035c0.027,0.094,0.052,0.189,0.076,0.285c1.202,4.709,5.994,7.552,10.703,6.35
	c0.883-0.225,1.725-0.586,2.497-1.071v48.8c0,26.819-21.741,48.56-48.56,48.56c-0.053,0-0.106,0-0.161,0H72.001
	c-17.674,0-32,14.327-32,32H489.36c12.503,0,22.64-10.136,22.64-22.64l0,0V96.001C511.999,96.001,511.999,95.521,511.999,95.201
	L511.999,95.201z"/>
<path style="fill:#F19920;" d="M279.52,234.8c-14.606,8.21-32.435,8.21-47.04,0l-224-125.84c0.827,0.782,1.71,1.504,2.64,2.16
	l219.36,136c15.507,9.629,35.133,9.629,50.639,0l219.36-136c0.93-0.656,1.812-1.378,2.64-2.16L279.52,234.8z"/>
<g>
	<path style="fill:#FFE278;" d="M211.92,177.041L148.88,142c-7.733-4.276-10.535-14.011-6.259-21.744
		c2.862-5.176,8.346-8.351,14.259-8.256H160c4.418,0,8-3.582,8-8c0-4.418-3.582-8-8-8H64.001c-2.869-0.011-5.525,1.515-6.96,4
		c-2.143,3.864-0.749,8.733,3.114,10.877c0.002,0.001,0.004,0.002,0.006,0.003l144,80c3.543,2.639,8.556,1.905,11.194-1.639
		c2.639-3.543,1.905-8.556-1.639-11.194C213.162,177.635,212.559,177.297,211.92,177.041z"/>
	<path style="fill:#FFE278;" d="M192,96.001h48c4.418,0,8,3.582,8,8l0,0c0,4.418-3.582,8-8,8h-48c-4.418,0-8-3.582-8-8l0,0
		C184,99.582,187.582,96.001,192,96.001z"/>
</g>
<path style="fill:#EE2C39;" d="M280,264.001h-48c-4.418,0-8,3.582-8,8v80c0.023,4.418,3.623,7.981,8.041,7.958
	c1.551-0.008,3.065-0.466,4.358-1.319l19.6-13.04l19.6,13.04c3.69,2.43,8.651,1.409,11.081-2.281
	c0.852-1.295,1.311-2.809,1.319-4.358v-80C288,267.582,284.418,264.001,280,264.001z"/>
<path style="fill:#CC202C;" d="M256,296c-11.82-0.027-23.214-4.414-32-12.32l0,0c-0.216,11.895,7.392,22.525,18.72,26.16l1.68,0.48
	c6.879,1.677,11.689,7.88,11.6,14.96v20.32l19.6,13.04c3.69,2.43,8.651,1.409,11.081-2.281c0.852-1.295,1.311-2.809,1.319-4.358
	v-68.32C279.214,291.587,267.82,295.973,256,296z"/>
<circle style="fill:#C97629;" cx="256.004" cy="239.999" r="56"/>
<circle style="fill:#A35425;" cx="256.004" cy="239.999" r="23.999"/>
<path style="fill:#DA8C36;" d="M288,232.001c4.418,0,8,3.582,8,8c0,22.091-17.908,40-40,40c-4.418,0-8-3.582-8-8s3.582-8,8-8
	c13.255,0,24-10.745,24-24C280,235.582,283.582,232.001,288,232.001z"/>
<path style="fill:#B06328;" d="M224,248.001c-4.418,0-8-3.582-8-8c0-22.091,17.908-40,40-40c4.418,0,8,3.582,8,8
	c0,4.418-3.582,8-8,8c-13.255,0-24,10.745-24,24C232,244.419,228.418,248.001,224,248.001z"/>
<g>
</g>
<g>
</g>
<g>
</g>
<g>
</g>
<g>
</g>
<g>
</g>
<g>
</g>
<g>
</g>
<g>
</g>
<g>
</g>
<g>
</g>
<g>
</g>
<g>
</g>
<g>
</g>
<g>
</g>
</svg>
