<?xml version="1.0" encoding="utf-8"?>
<!-- Generator: Adobe Illustrator 21.1.0, SVG Export Plug-In . SVG Version: 6.00 Build 0)  -->
<svg version="1.1" id="Layer_1" xmlns="http://www.w3.org/2000/svg" xmlns:xlink="http://www.w3.org/1999/xlink" x="0px" y="0px"
	 viewBox="0 0 512 512" style="enable-background:new 0 0 512 512;" xml:space="preserve">
<style type="text/css">
	.st0{display:none;fill:#47461A;}
	.st1{fill:#EAE094;}
	.st2{fill:#FFFF45;}
</style>
<rect x="-120" y="-64.7" class="st0" width="864" height="750"/>
<path class="st1" d="M466.5,172.9c0.4,1.3,1.1,4.5-1.8,7.3l-85.7,83.5c-8.4,8.2-12.3,20-10.3,31.6l20.2,118c0.7,3.9-1.8,6.2-2.8,7
	c-1.1,0.8-4,2.4-7.5,0.5l-105.9-55.7c-5.2-2.7-10.9-4.1-16.6-4.1c-5.7,0-11.4,1.4-16.6,4.1l-105.9,55.7c-3.5,1.9-6.4,0.2-7.5-0.5
	c-1.1-0.8-3.5-3-2.8-7l20.2-118c2-11.6-1.8-23.4-10.3-31.6l-85.7-83.5c-2.9-2.8-2.2-6-1.8-7.3c0.4-1.3,1.8-4.3,5.8-4.9l118.4-17.2
	c11.6-1.7,21.7-9,26.9-19.5l53-107.3c1.8-3.6,5.1-4,6.4-4c0.7,0,1.8,0.1,3,0.6c1.2,0.5,2.5,1.5,3.4,3.3l53,107.3
	c5.2,10.5,15.2,17.8,26.9,19.5L460.7,168C464.7,168.6,466,171.6,466.5,172.9z"/>
<g>
	<path class="st2" d="M502.7,305.7c7.1,2.3,11,9.9,8.7,17c-1.9,5.7-7.1,9.3-12.8,9.3c-1.4,0-2.8-0.2-4.2-0.7l-23.2-7.5
		c-7.1-2.3-11-9.9-8.7-17c2.3-7.1,9.9-11,17-8.7L502.7,305.7z"/>
	<path class="st2" d="M480.8,167.1c4,12.3,0.7,25.6-8.5,34.6l-81.1,79c-1.6,1.6-2.3,3.8-1.9,6l19.1,111.6c2.2,12.8-3,25.4-13.4,33
		c-5.9,4.3-12.8,6.5-19.8,6.5c-5.4,0-10.8-1.3-15.7-3.9l-100.2-52.7c-2-1-4.3-1-6.3,0l-100.2,52.7c-11.5,6-25.1,5.1-35.6-2.6
		c-10.5-7.6-15.6-20.3-13.4-33l19.1-111.6c0.4-2.2-0.4-4.4-1.9-6l-81.1-79c-9.3-9-12.5-22.3-8.5-34.6c4-12.3,14.4-21.1,27.3-23
		l112-16.3c2.2-0.3,4.1-1.7,5.1-3.7l50.1-101.5C231.5,11,243.1,3.8,256,3.8c13,0,24.6,7.2,30.3,18.8l50.1,101.5c1,2,2.9,3.4,5.1,3.7
		l112,16.3C466.3,146,476.8,154.8,480.8,167.1z M453.4,182.4c2.7-2.6,2.1-5.7,1.7-6.9s-1.7-4.1-5.5-4.6l-112-16.3
		c-11-1.6-20.5-8.5-25.4-18.5L262.1,34.6c-0.8-1.7-2-2.6-3.2-3.1s-2.2-0.6-2.9-0.6c-1.3,0-4.4,0.4-6.1,3.8l-50.1,101.5
		c-4.9,10-14.4,16.9-25.4,18.5l-112,16.3c-3.7,0.5-5.1,3.4-5.4,4.6c-0.4,1.2-1,4.3,1.7,6.9l81.1,79c8,7.8,11.6,18.9,9.7,29.9
		l-19.1,111.6c-0.6,3.7,1.7,5.9,2.7,6.6c1,0.7,3.8,2.3,7.1,0.5l100.2-52.7c4.9-2.6,10.3-3.9,15.7-3.9c5.4,0,10.8,1.3,15.7,3.9
		L371.9,410c3.4,1.8,6.1,0.2,7.1-0.5c1-0.7,3.3-2.9,2.7-6.6l-19.1-111.6c-1.9-11,1.8-22.1,9.7-29.9L453.4,182.4z"/>
</g>
<g>
	<path class="st2" d="M413.8,22.6c6,4.4,7.4,12.8,3,18.9l-14.3,19.7c-2.6,3.6-6.8,5.6-10.9,5.6c-2.7,0-5.5-0.8-7.9-2.6
		c-6-4.4-7.4-12.8-3-18.9l14.3-19.7C399.3,19.6,407.8,18.2,413.8,22.6z"/>
	<path class="st2" d="M269.5,470.3v24.4c0,7.5-6,13.5-13.5,13.5c-7.5,0-13.5-6-13.5-13.5v-24.4c0-7.5,6.1-13.5,13.5-13.5
		C263.5,456.8,269.5,462.8,269.5,470.3z"/>
	<path class="st2" d="M131.4,45.3c4.4,6,3,14.5-3,18.9c-2.4,1.7-5.2,2.6-7.9,2.6c-4.2,0-8.3-1.9-10.9-5.6L95.2,41.4
		c-4.4-6-3-14.5,3-18.9c6-4.4,14.5-3.1,18.9,3L131.4,45.3z"/>
	<path class="st2" d="M49.5,306.8c2.3,7.1-1.6,14.7-8.7,17l-23.2,7.5c-1.4,0.4-2.8,0.7-4.2,0.7c-5.7,0-11-3.6-12.8-9.3
		c-2.3-7.1,1.6-14.7,8.7-17l23.2-7.5C39.6,295.9,47.2,299.7,49.5,306.8z"/>
</g>
</svg>
