<svg xmlns="http://www.w3.org/2000/svg" viewBox="0 0 287.44 287.44"><defs><style>.cls-1{fill:#f2e377;}.cls-2{fill:#f0c419;}</style></defs><title>gold</title><g id="Calque_2" data-name="Calque 2"><g id="Layer_1" data-name="Layer 1"><path class="cls-1" d="M143.72,287.44C64.47,287.44,0,223.24,0,144.33,0,64.75,64.47,0,143.72,0S287.44,64.75,287.44,144.33c0,78.91-64.47,143.11-143.72,143.11"/><path class="cls-2" d="M35.93,153.32a9,9,0,0,1-9-9C26.95,79.61,79.33,27,143.72,27a9,9,0,1,1,0,18c-54.48,0-98.81,44.59-98.81,99.42a9,9,0,0,1-9,9"/><path class="cls-2" d="M125.75,215.58a9,9,0,0,1-6.82-14.82l41.18-48.06H107.79a9,9,0,0,1-6.35-15.33l53.9-53.89A9,9,0,0,1,168,96.17l-38.56,38.56h50.18a9,9,0,0,1,6.82,14.82l-53.9,62.88a8.92,8.92,0,0,1-6.82,3.14"/></g></g></svg>