<?xml version="1.0" encoding="iso-8859-1"?>
<!-- Generator: Adobe Illustrator 19.0.0, SVG Export Plug-In . SVG Version: 6.00 Build 0)  -->
<svg version="1.1" id="Layer_1" xmlns="http://www.w3.org/2000/svg" xmlns:xlink="http://www.w3.org/1999/xlink" x="0px" y="0px"
	 viewBox="0 0 512 512" style="enable-background:new 0 0 512 512;" xml:space="preserve">
<g transform="translate(-1)">
	<path style="fill:#546A79;" d="M257.001,233.544c48.11,0,90.669,23.947,116.772,60.506v-96.436H140.229v89.825
		c2.605-1.491,5.964-3.449,9.899-5.722C176.455,252.227,214.55,233.544,257.001,233.544"/>
	<path style="fill:#F2E377;" d="M257.001,512c-79.252,0-143.719-64.198-143.719-143.108c0-79.585,64.467-144.33,143.719-144.33
		s143.719,64.746,143.719,144.33C400.72,447.802,336.253,512,257.001,512"/>
	<g>
		<path style="fill:#F0C419;" d="M149.211,377.878c-4.967,0-8.982-4.015-8.982-8.982c0-64.728,52.386-117.383,116.772-117.383
			c4.967,0,8.982,4.015,8.982,8.982c0,4.958-4.015,8.982-8.982,8.982c-54.479,0-98.807,44.589-98.807,99.418
			C158.194,373.862,154.179,377.878,149.211,377.878"/>
		<path style="fill:#F0C419;" d="M257.001,485.053c-4.967,0-8.982-4.015-8.982-8.982c0-4.967,4.015-8.982,8.982-8.982
			c54.479,0,98.807-44.05,98.807-98.196c0-4.958,4.015-8.982,8.982-8.982s8.982,4.024,8.982,8.982
			C373.773,432.945,321.387,485.053,257.001,485.053"/>
		<path style="fill:#F0C419;" d="M239.036,440.14c-2.066,0-4.15-0.71-5.839-2.165c-3.773-3.234-4.213-8.893-0.979-12.656
			l41.185-48.056h-52.332c-3.629,0-6.916-2.183-8.3-5.542c-1.392-3.359-0.62-7.222,1.949-9.791l53.895-53.895
			c3.512-3.512,9.189-3.512,12.701,0s3.512,9.189,0,12.701l-38.562,38.562h50.176c3.512,0,6.692,2.048,8.156,5.228
			c1.464,3.189,0.952,6.934-1.338,9.593l-53.895,62.877C244.084,439.08,241.56,440.14,239.036,440.14"/>
	</g>
	<polygon style="fill:#38454F;" points="444.994,0 257,197.605 69.006,0 5.491,63.515 140.228,197.614 247.38,197.614 
		266.62,197.614 373.772,197.614 508.509,63.515 	"/>
	<polygon style="fill:#546A79;" points="359.537,89.825 444.996,0 69.008,0 154.467,89.825 	"/>
</g>
<g>
</g>
<g>
</g>
<g>
</g>
<g>
</g>
<g>
</g>
<g>
</g>
<g>
</g>
<g>
</g>
<g>
</g>
<g>
</g>
<g>
</g>
<g>
</g>
<g>
</g>
<g>
</g>
<g>
</g>
</svg>
