<?xml version="1.0" encoding="utf-8"?>
<!-- Generator: Adobe Illustrator 21.1.0, SVG Export Plug-In . SVG Version: 6.00 Build 0)  -->
<svg version="1.1" id="Calque_1" xmlns="http://www.w3.org/2000/svg" xmlns:xlink="http://www.w3.org/1999/xlink" x="0px" y="0px"
	 viewBox="0 0 61.7 15.6" style="enable-background:new 0 0 61.7 15.6;" xml:space="preserve">
<style type="text/css">
	.st0{fill:#FFFFFF;}
</style>
<title>horsligne</title>
<g>
	<path class="st0" d="M22.8,6.4c-0.2-0.1-0.3-0.1-0.5-0.1h-0.5v1.4h0.6c0.2,0,0.4-0.1,0.5-0.2c0.1-0.1,0.2-0.3,0.2-0.5
		c0-0.1,0-0.3-0.1-0.4C23,6.5,22.9,6.4,22.8,6.4z"/>
	<path class="st0" d="M15.5,6.7C15.5,6.7,15.5,6.8,15.5,6.7c-0.3,0.3-0.5,0.8-0.5,1.2h0c0,0.4,0.1,0.9,0.4,1.2
		c0.6,0.6,1.5,0.7,2.1,0.1c0,0,0.1-0.1,0.1-0.1c0.3-0.3,0.5-0.8,0.4-1.2c0-0.4-0.1-0.9-0.4-1.2C17.1,6.1,16.2,6.1,15.5,6.7z"/>
	<path class="st0" d="M53.9,0H42.6H19.1H7.8C3.5,0,0,3.5,0,7.8s3.5,7.8,7.8,7.8c0,0,0,0,0,0h11.3h0h23.5h11.3c4.3,0,7.8-3.5,7.8-7.8
		C61.7,3.5,58.2,0,53.9,0z M12.8,5.5v4.8c0,0.2-0.1,0.4-0.3,0.4c0,0-0.1,0-0.1,0h-0.5c-0.2,0-0.4-0.1-0.4-0.3c0,0,0-0.1,0-0.1V8.6
		H9.3v1.8c0,0.2-0.1,0.4-0.3,0.4c0,0-0.1,0-0.1,0H8.4c-0.2,0-0.4-0.1-0.4-0.3c0,0,0-0.1,0-0.1V5.5c0-0.2,0.1-0.4,0.3-0.4
		c0,0,0.1,0,0.1,0h0.5c0.2,0,0.4,0.1,0.4,0.3c0,0,0,0.1,0,0.1v1.9h2.1V5.5c0-0.2,0.1-0.4,0.3-0.4c0,0,0.1,0,0.1,0h0.5
		c0.2,0,0.4,0.1,0.4,0.3C12.8,5.5,12.8,5.5,12.8,5.5z M19.4,9.1c-0.1,0.4-0.3,0.7-0.6,1c-0.3,0.3-0.6,0.5-1,0.6
		C17.4,10.9,17,11,16.6,11c-0.5,0-1.1-0.1-1.6-0.4c-0.4-0.3-0.8-0.7-1-1.1c-0.3-0.5-0.4-1-0.4-1.5c0-0.4,0.1-0.8,0.2-1.2
		c0.3-0.7,0.8-1.3,1.5-1.5c0.8-0.3,1.6-0.3,2.4,0c0.4,0.1,0.7,0.4,1,0.6c0.3,0.3,0.5,0.6,0.6,0.9c0.1,0.4,0.2,0.8,0.2,1.2
		C19.6,8.3,19.5,8.7,19.4,9.1z M24.8,10.6c-0.1,0.1-0.2,0.2-0.3,0.2h-0.6c-0.2,0-0.4-0.1-0.5-0.3l-0.8-1.6h-0.7v1.5
		c0,0.2-0.1,0.4-0.3,0.4c0,0-0.1,0-0.1,0h-0.5c-0.2,0-0.4-0.1-0.4-0.3c0,0,0,0,0,0V5.5c0-0.2,0.1-0.4,0.3-0.4c0,0,0.1,0,0.1,0h1.6
		c0.4,0,0.7,0,1.1,0.1c0.3,0.1,0.6,0.3,0.8,0.6c0.2,0.3,0.3,0.6,0.3,1c0,0.3-0.1,0.6-0.2,0.9C24.2,8,24,8.3,23.7,8.4
		c0.1,0.1,0.1,0.2,0.2,0.3l0.8,1.5c0,0.1,0.1,0.2,0.1,0.3C24.8,10.5,24.8,10.6,24.8,10.6z M29.2,9.9c-0.2,0.5-0.5,0.8-1,1
		C27.9,11,27.6,11,27.3,11c-0.3,0-0.7-0.1-1-0.2c-0.3-0.1-0.5-0.2-0.8-0.4c-0.1,0-0.1-0.1-0.1-0.2c0-0.1,0-0.1,0-0.2L25.2,10
		c0-0.1,0.1-0.2,0.1-0.3l0.3-0.4c0.1-0.1,0.2-0.2,0.3-0.2h0c0.1,0,0.2,0,0.3,0.1l0.1,0.1l0.2,0.1l0.2,0.1c0.1,0,0.2,0.1,0.3,0.1h0.3
		c0.2,0,0.3,0,0.5-0.1c0.1-0.1,0.2-0.2,0.1-0.3c0-0.1,0-0.2-0.1-0.2c-0.1-0.1-0.1-0.1-0.2-0.2l-0.3-0.2l-0.4-0.2l-0.4-0.2
		C26.2,8.2,26.1,8.1,26,8c-0.1-0.1-0.2-0.2-0.3-0.3c-0.1-0.1-0.2-0.3-0.2-0.4c-0.2-0.6,0-1.4,0.5-1.8C26.3,5.2,26.8,5,27.3,5
		c0.3,0,0.6,0,0.9,0.1c0.2,0.1,0.5,0.2,0.7,0.3c0.1,0.1,0.2,0.2,0.2,0.3c0,0.1,0,0.2-0.1,0.2l-0.2,0.4c0,0.1-0.1,0.1-0.1,0.2
		c0,0-0.1,0.1-0.1,0.1h-0.2l-0.2-0.1L28,6.4l-0.3-0.1c-0.1,0-0.2,0-0.3,0c-0.2,0-0.3,0-0.5,0.1c-0.1,0.1-0.2,0.2-0.1,0.3
		c0,0.1,0,0.2,0.1,0.2C26.9,7,27,7.1,27.1,7.2l0.3,0.2l0.4,0.2l0.4,0.2c0.1,0.1,0.3,0.1,0.4,0.2C28.8,8,28.9,8.1,29,8.2
		c0.1,0.1,0.2,0.3,0.2,0.4c0.1,0.2,0.1,0.3,0.1,0.5C29.3,9.4,29.3,9.6,29.2,9.9z M35.8,10.1v0.3c0,0.2-0.1,0.4-0.3,0.4
		c0,0-0.1,0-0.1,0h-2.8c-0.2,0-0.4-0.1-0.4-0.3c0,0,0-0.1,0-0.1V5.5c0-0.2,0.1-0.4,0.3-0.4c0,0,0.1,0,0.1,0H33
		c0.2,0,0.4,0.1,0.4,0.3c0,0,0,0.1,0,0.1v4.1h1.9c0.2,0,0.4,0.1,0.4,0.3C35.8,10,35.8,10,35.8,10.1z M37.8,5.5v4.8
		c0,0.2-0.1,0.4-0.3,0.4c0,0-0.1,0-0.1,0h-0.5c-0.2,0-0.4-0.1-0.4-0.3c0,0,0-0.1,0-0.1V5.5c0-0.2,0.1-0.4,0.3-0.4c0,0,0.1,0,0.1,0
		h0.5c0.2,0,0.4,0.1,0.4,0.3C37.8,5.5,37.8,5.5,37.8,5.5z M44,8v2.3c0,0.2-0.1,0.4-0.3,0.4c0,0-0.1,0-0.1,0h-0.3
		c-0.1,0-0.2,0-0.3-0.1c-0.1-0.1-0.1-0.2-0.1-0.3v-0.1l-0.1,0.1l-0.2,0.1c-0.1,0.1-0.2,0.1-0.3,0.2c-0.1,0.1-0.3,0.1-0.4,0.1
		c-0.2,0-0.4,0.1-0.5,0.1c-0.4,0-0.7-0.1-1.1-0.2c-0.3-0.1-0.6-0.3-0.9-0.6c-0.3-0.3-0.5-0.6-0.6-0.9c-0.2-0.4-0.2-0.8-0.2-1.2
		c0-0.4,0.1-0.8,0.2-1.2c0.3-0.7,0.8-1.3,1.6-1.6C40.7,5.1,41.2,5,41.6,5c0.4,0,0.8,0.1,1.1,0.2c0.3,0.1,0.5,0.2,0.7,0.3
		c0.1,0.1,0.2,0.2,0.2,0.3c0,0.1,0,0.2-0.1,0.3l-0.2,0.3c-0.1,0.1-0.2,0.2-0.3,0.2H43c-0.1,0-0.2,0-0.3-0.1l-0.3-0.1
		c-0.1,0-0.2-0.1-0.3-0.1c-0.1,0-0.3,0-0.4,0c-0.3,0-0.5,0-0.7,0.1c-0.2,0.1-0.4,0.2-0.5,0.4c-0.1,0.2-0.2,0.3-0.3,0.5
		c-0.2,0.4-0.2,0.9,0,1.3c0.1,0.2,0.2,0.4,0.4,0.5c0.1,0.1,0.3,0.3,0.5,0.3c0.2,0.1,0.4,0.1,0.6,0.1c0.1,0,0.3,0,0.4,0
		c0.1,0,0.2-0.1,0.3-0.1l0.2-0.1c0.1,0,0.1-0.1,0.1-0.1V8.8h-0.4c-0.2,0-0.4-0.2-0.4-0.4c0,0,0,0,0,0V8c0-0.2,0.1-0.4,0.3-0.4
		c0,0,0.1,0,0.1,0h1.2c0.2,0,0.4,0.1,0.4,0.3C44.1,7.9,44.1,8,44,8z M49.8,5.5v4.8c0,0.2-0.1,0.4-0.3,0.4c0,0-0.1,0-0.1,0h-0.6
		c-0.2,0-0.4-0.1-0.5-0.3l-1.4-2.4c-0.1-0.1-0.1-0.3-0.2-0.4l-0.2-0.4l-0.1-0.2c0,0.3,0.1,0.7,0.1,1v2.2c0,0.2-0.1,0.4-0.3,0.4
		c0,0-0.1,0-0.1,0h-0.5c-0.2,0-0.4-0.1-0.5-0.3c0-0.1,0-0.1,0-0.2V5.5c0-0.2,0.1-0.4,0.3-0.4c0,0,0.1,0,0.1,0H46
		c0.2,0,0.4,0.1,0.5,0.3l1.4,2.4C48,7.9,48.1,8,48.2,8.2l0.2,0.4l0.1,0.2c0-0.4-0.1-0.7-0.1-1V5.5c0-0.2,0.1-0.4,0.3-0.4
		c0,0,0.1,0,0.1,0h0.5c0.2,0,0.4,0.1,0.4,0.3C49.8,5.5,49.8,5.5,49.8,5.5z M54.6,10.1v0.3c0,0.2-0.1,0.4-0.3,0.4c0,0-0.1,0-0.1,0
		h-2.8c-0.2,0-0.4-0.1-0.4-0.3c0,0,0-0.1,0-0.1V5.5c0-0.2,0.1-0.4,0.3-0.4c0,0,0.1,0,0.1,0H54c0.2,0,0.4,0.1,0.4,0.3
		c0,0,0,0.1,0,0.1v0.3c0,0.2-0.1,0.4-0.3,0.4c0,0-0.1,0-0.1,0h-1.7v1h1.3c0.2,0,0.4,0.1,0.4,0.3c0,0,0,0.1,0,0.1v0.4
		c0,0.2-0.1,0.4-0.3,0.4c0,0-0.1,0-0.1,0h-1.3v1.1h1.9c0.2,0,0.4,0.1,0.4,0.3C54.6,10,54.6,10,54.6,10.1z"/>
</g>
</svg>
