<?xml version="1.0" encoding="iso-8859-1"?>
<!-- Generator: Adobe Illustrator 19.0.0, SVG Export Plug-In . SVG Version: 6.00 Build 0)  -->
<svg version="1.1" id="Layer_1" xmlns="http://www.w3.org/2000/svg" xmlns:xlink="http://www.w3.org/1999/xlink" x="0px" y="0px"
	 viewBox="0 0 512 512" style="enable-background:new 0 0 512 512;" xml:space="preserve">
<rect x="220.69" y="382.529" style="fill:#88888F;" width="70.621" height="129.471"/>
<rect x="256" y="382.529" style="fill:#797781;" width="35.31" height="129.471"/>
<path style="fill:#B4D8F1;" d="M420.782,158.897H91.218c-39.003,0-70.621,31.618-70.621,70.621v164.782h470.805V229.517
	C491.402,190.515,459.784,158.897,420.782,158.897z"/>
<path style="fill:#98C8ED;" d="M491.402,229.517c0-39.003-31.618-70.621-70.621-70.621H256v235.402h235.402V229.517z"/>
<path style="fill:#D1E5F5;" d="M91.218,158.897c-39.003,0-70.621,31.618-70.621,70.621v164.782h141.241V229.517
	C161.839,190.515,130.221,158.897,91.218,158.897z"/>
<path style="fill:#F8E99B;" d="M385.471,88.276V0h-88.276l-0.001,266.951c-3.795,4.303-5.889,9.757-5.884,15.533
	c0,6.288,2.448,12.199,6.893,16.644c4.446,4.447,10.359,6.895,16.634,6.895h0.018c12.973,0,23.532-10.557,23.537-23.544
	c-0.002-5.944-2.236-11.364-5.886-15.511V88.276H385.471z"/>
<g>
</g>
<g>
</g>
<g>
</g>
<g>
</g>
<g>
</g>
<g>
</g>
<g>
</g>
<g>
</g>
<g>
</g>
<g>
</g>
<g>
</g>
<g>
</g>
<g>
</g>
<g>
</g>
<g>
</g>
</svg>
