<?xml version="1.0" encoding="utf-8"?>
<!--Generator: Adobe Illustrator 21.1.0, SVG Export Plug-In . SVG Version: 6.00 Build 0)-->
<svg xmlns="http://www.w3.org/2000/svg" xmlns:xlink="http://www.w3.org/1999/xlink" id="Layer_1" x="0px" y="0px" style="enable-background:new 0 0 512 266.2;" version="1.1" viewBox="0 0 512 266.2" xml:space="preserve">
    <style type="text/css">
        .st0{fill:#F4F4F4;} .st1{fill:#D3D3D3;} .st2{fill:#EDEBEB;}
    </style>
    <path d="M512,9.8v246.5c0,5.4-4.4,9.8-9.8,9.8H154c-5.4,0-9.8-4.4-9.8-9.8V9.8c0-5.4,4.4-9.8,9.8-9.8h348.2
	C507.6,0,512,4.4,512,9.8z" class="st0"/>
    <path d="M512,9.8L374.3,133.1L512,256.4l0,0c0,5.4-4.4,9.8-9.8,9.8H501L363.3,142.9L333,170c-1.4,1.2-3.1,1.9-4.9,1.9
	s-3.5-0.6-4.9-1.9l-30.3-27.1L155.2,266.2H154c-5.4,0-9.8-4.4-9.8-9.8v0l137.7-123.2L144.2,9.8v0c0-5.4,4.4-9.8,9.8-9.8h1.2
	l172.9,154.7L501,0h1.2C507.6,0,512,4.4,512,9.8L512,9.8L512,9.8z" class="st1"/>
    <g>
        <path d="M102.7,39H31.2c-3.7,0-6.7-3-6.7-6.7s3-6.7,6.7-6.7h71.5c3.7,0,6.7,3,6.7,6.7S106.4,39,102.7,39z" class="st2"/>
        <path d="M108.8,167.3H43.4c-3.7,0-6.7-3-6.7-6.7c0-3.7,3-6.7,6.7-6.7h65.4c3.7,0,6.7,3,6.7,6.7
		C115.5,164.3,112.5,167.3,108.8,167.3z" class="st2"/>
        <path d="M84.3,112.3H6.7c-3.7,0-6.7-3-6.7-6.7s3-6.7,6.7-6.7h77.6c3.7,0,6.7,3,6.7,6.7S88,112.3,84.3,112.3z" class="st2"/>
        <path d="M84.3,240.6h-7.5c-3.7,0-6.7-3-6.7-6.7s3-6.7,6.7-6.7h7.5c3.7,0,6.7,3,6.7,6.7C91,237.6,88,240.6,84.3,240.6z" class="st2"/>
        <path d="M46.3,240.6H6.7c-3.7,0-6.7-3-6.7-6.7s3-6.7,6.7-6.7h39.5c3.7,0,6.7,3,6.7,6.7C53,237.6,50,240.6,46.3,240.6z" class="st2"/>
    </g>
</svg>
