<?xml version="1.0" encoding="utf-8"?>
<!-- Generator: Adobe Illustrator 21.1.0, SVG Export Plug-In . SVG Version: 6.00 Build 0)  -->
<svg version="1.1" id="Layer_1" xmlns="http://www.w3.org/2000/svg" xmlns:xlink="http://www.w3.org/1999/xlink" x="0px" y="0px"
	 viewBox="0 0 511.8 298.4" style="enable-background:new 0 0 511.8 298.4;" xml:space="preserve">
<style type="text/css">
	.st0{fill:#F8B64C;}
	.st1{fill:#CDD6E0;}
	.st2{fill:#40596B;}
	.st3{fill:#FFD15C;}
	.st4{fill:#F7AD43;}
	.st5{fill:#FFCA55;}
	.st6{fill:#ACB3BA;}
</style>
<path class="st0" d="M364.7,228.7c0,2.1,1.1,3.2,1.1,5.3c0,14.9-14.9,27.7-29.9,23.5l-8.5-2.1c0,1.1,0,1.1,0,2.1
	c0,13.9-14.9,24.5-28.8,19.2l-8.5-3.2c0,1.1,0,2.1,0,3.2c0,11.7-11.7,21.3-23.5,19.2l-6.4-1.1l-134.4-72.5c0,0-7.5-20.3-25.6-25.6
	L73.5,186l-14.9-5.3l51.2-132.3l14.9,6.4l17.1,7.5c0,0,11.7,4.3,40.5-9.6c17.1-8.5,34.1-16,52.3-22.4l4.3-1.1c0,0,11.7-3.2,22.4,7.5
	l129.1,158.9l0,0C398.8,212.7,383.9,234,364.7,228.7z"/>
<rect x="-23.6" y="76.3" transform="matrix(0.3582 -0.9337 0.9337 0.3582 -62.7382 119.9197)" class="st1" width="159" height="58.7"/>
<rect x="432.2" y="5" transform="matrix(0.9608 -0.2771 0.2771 0.9608 -5.3339 131.2103)" class="st2" width="58.7" height="158.9"/>
<g>
	<path class="st3" d="M452.2,158.3l-14.9,2.1l-12.8,2.1l-35.2,34.1c-17.1-20.3-30.9-40.5-50.1-58.7c-24.5-23.5-53.3-43.7-53.3-43.7
		c-25.6,10.7-45.9,3.2-45.9,3.2c-9.6,21.3-29.9,36.3-29.9,36.3s-1.1,0-1.1,1.1c-20.3,10.7-42.7-11.7-32-32L194,71.9
		c2.1-4.3,6.4-8.5,11.7-10.7l58.7-24.5c4.3-2.1,8.5-2.1,13.9-1.1l70.4,12.8L402,37.7l16-3.2L452.2,158.3z"/>
	<path class="st3" d="M252.7,259.6c-7.5-5.3-18.1-2.1-26.7,7.5c6.4-11.7,5.3-23.5-2.1-29.9c-8.5-6.4-23.5-2.1-34.1,9.6
		c5.3-11.7,4.3-22.4-2.1-27.7c-8.5-7.5-25.6,0-37.3,13.9c6.4-11.7,5.3-23.5-2.1-29.9c-8.5-7.5-24.5-2.1-35.2,11.7
		c-10.7,12.8-11.7,29.9-2.1,36.3c8.5,6.4,23.5,2.1,34.1-10.7c-7.5,12.8-7.5,26.7,0,32c8.5,7.5,25.6,0,37.3-13.9
		c-4.3,10.7-3.2,20.3,4.3,25.6c8.5,6.4,24.5,2.1,34.1-10.7c-4.3,8.5-3.2,18.1,2.1,22.4c7.5,5.3,19.2,2.1,27.7-8.5
		C259.1,277.7,260.2,264.9,252.7,259.6z"/>
</g>
<polygon class="st4" points="123.6,54.8 73.5,186 58.6,179.6 108.7,47.3 "/>
<polygon class="st5" points="452.2,158.3 437.2,160.4 401,35.6 417,32.4 "/>
<circle class="st6" cx="35.1" cy="160.4" r="9.6"/>
</svg>
