<?xml version="1.0" encoding="iso-8859-1"?>
<!-- Generator: Adobe Illustrator 19.0.0, SVG Export Plug-In . SVG Version: 6.00 Build 0)  -->
<svg version="1.1" id="Layer_1" xmlns="http://www.w3.org/2000/svg" xmlns:xlink="http://www.w3.org/1999/xlink" x="0px" y="0px"
	 viewBox="0 0 512 512" style="enable-background:new 0 0 512 512;" xml:space="preserve">
<polygon style="fill:#F8E98E;" points="174.45,512 68.462,406.013 68.462,136.923 443.538,136.923 443.538,512 "/>
<rect x="256" y="136.927" style="fill:#F4DA49;" width="187.537" height="375.073"/>
<polygon style="fill:#E69824;" points="68.462,406.013 174.45,512 174.45,406.013 "/>
<rect x="239.304" y="98.393" style="fill:#CBCBCE;" width="33.391" height="118.995"/>
<rect x="256" y="98.393" style="fill:#BABABE;" width="16.696" height="118.995"/>
<path style="fill:#79D5DE;" d="M256,115.089c-31.731,0-57.544-25.814-57.544-57.544S224.269,0,256,0s57.544,25.814,57.544,57.544
	S287.731,115.089,256,115.089z"/>
<path style="fill:#3D6C6F;" d="M256,0v115.089c31.731,0,57.544-25.814,57.544-57.544S287.731,0,256,0z"/>
<g>
</g>
<g>
</g>
<g>
</g>
<g>
</g>
<g>
</g>
<g>
</g>
<g>
</g>
<g>
</g>
<g>
</g>
<g>
</g>
<g>
</g>
<g>
</g>
<g>
</g>
<g>
</g>
<g>
</g>
</svg>
