<?xml version="1.0" encoding="utf-8"?>
<!-- Generator: Adobe Illustrator 21.1.0, SVG Export Plug-In . SVG Version: 6.00 Build 0)  -->
<svg version="1.1" id="Layer_1" xmlns="http://www.w3.org/2000/svg" xmlns:xlink="http://www.w3.org/1999/xlink" x="0px" y="0px"
	 viewBox="0 0 512 631.7" style="enable-background:new 0 0 512 631.7;" xml:space="preserve">
<style type="text/css">
	.st0{fill:#FDFF87;}
	.st1{fill:#A8CEC3;}
</style>
<title>down</title>
<path class="st0" d="M256,590.1c30.3,0,54.9-24.6,54.9-54.9c0-30.3-24.6-54.9-54.9-54.9s-54.9,24.6-54.9,54.9l0,0
	C201.1,565.6,225.7,590.1,256,590.1C256,590.1,256,590.1,256,590.1"/>
<path class="st0" d="M356.6,480.4c30.3,0,54.9-24.6,54.9-54.9s-24.6-54.9-54.9-54.9s-54.9,24.6-54.9,54.9v0
	C301.7,455.9,326.3,480.4,356.6,480.4C356.6,480.4,356.6,480.4,356.6,480.4"/>
<path class="st0" d="M457.1,370.7c30.3,0,54.9-24.6,54.9-54.9S487.4,261,457.1,261s-54.9,24.6-54.9,54.9c0,0,0,0,0,0
	C402.3,346.2,426.8,370.7,457.1,370.7C457.1,370.7,457.1,370.7,457.1,370.7"/>
<path class="st0" d="M155.4,480.4c30.3,0,54.9-24.6,54.9-54.9c0-30.3-24.6-54.9-54.9-54.9s-54.9,24.6-54.9,54.9l0,0
	C100.6,455.9,125.1,480.4,155.4,480.4C155.4,480.4,155.4,480.4,155.4,480.4"/>
<path class="st1" d="M54.9,370.7c30.3,0,54.9-24.6,54.9-54.9c0-30.3-24.6-54.9-54.9-54.9S0,285.6,0,315.9c0,0,0,0,0,0
	C0,346.2,24.5,370.7,54.9,370.7C54.8,370.7,54.9,370.7,54.9,370.7"/>
<path class="st1" d="M256,41.6c-30.3,0-54.9,24.6-54.9,54.9s24.6,54.9,54.9,54.9s54.9-24.6,54.9-54.9l0,0
	C310.9,66.1,286.3,41.6,256,41.6C256,41.6,256,41.6,256,41.6"/>
<path class="st1" d="M155.4,151.3c-30.3,0-54.9,24.6-54.9,54.9s24.6,54.9,54.9,54.9s54.9-24.6,54.9-54.9v0
	C210.3,175.8,185.7,151.3,155.4,151.3C155.4,151.3,155.4,151.3,155.4,151.3"/>
<path class="st1" d="M54.9,261C24.6,261,0,285.6,0,315.9s24.6,54.9,54.9,54.9s54.9-24.6,54.9-54.9c0,0,0,0,0,0
	C109.7,285.6,85.2,261,54.9,261C54.9,261,54.9,261,54.9,261"/>
<path class="st1" d="M356.6,151.3c-30.3,0-54.9,24.6-54.9,54.9c0,30.3,24.6,54.9,54.9,54.9s54.9-24.6,54.9-54.9l0,0
	C411.4,175.8,386.9,151.3,356.6,151.3C356.6,151.3,356.6,151.3,356.6,151.3"/>
<path class="st0" d="M457.1,261c-30.3,0-54.9,24.6-54.9,54.9c0,30.3,24.6,54.9,54.9,54.9s54.9-24.6,54.9-54.9c0,0,0,0,0,0
	C512,285.6,487.5,261,457.1,261C457.2,261,457.1,261,457.1,261"/>
</svg>
