<?xml version="1.0" encoding="utf-8"?>
<!-- Generator: Adobe Illustrator 21.1.0, SVG Export Plug-In . SVG Version: 6.00 Build 0)  -->
<svg version="1.1" id="Layer_1" xmlns="http://www.w3.org/2000/svg" xmlns:xlink="http://www.w3.org/1999/xlink" x="0px" y="0px"
	 viewBox="0 0 512 512" style="enable-background:new 0 0 512 512;" xml:space="preserve">
<style type="text/css">
	.st0{fill:#E5E5E5;}
	.st1{fill:#CCCCCC;}
</style>
<path class="st0" d="M512,118.9v22.4c0,8.9-6.6,16.6-15.4,18c-4,0.6-8,1.2-12.1,1.7c-2.1,6.9-4.8,13.5-8.2,19.8
	c2.5,3.3,5,6.6,7.4,9.8c5.3,7.2,4.5,17.3-1.8,23.6L466,230c-6.3,6.3-16.5,7.1-23.6,1.8c-3.2-2.4-6.5-4.9-9.8-7.3
	c-6.3,3.4-13,6.2-19.8,8.2c-0.5,4.1-1.1,8.2-1.7,12.1c-1.3,8.8-9,15.4-18,15.4h-22.4c-8.9,0-16.6-6.6-18-15.4c-0.6-4-1.2-8-1.7-12.1
	c-6.9-2.1-13.5-4.8-19.8-8.2c-3.3,2.5-6.5,5-9.8,7.3c-7.2,5.3-17.3,4.5-23.6-1.8L282,214.2c-6.3-6.3-7.1-16.5-1.8-23.6
	c2.4-3.2,4.9-6.5,7.4-9.8c-3.4-6.3-6.1-13-8.2-19.8c-4.1-0.5-8.2-1.1-12.1-1.7c-8.8-1.3-15.4-9-15.4-18v-22.4
	c0-8.9,6.6-16.6,15.4-18c4-0.6,8-1.2,12.1-1.7c2.1-6.9,4.8-13.5,8.2-19.8c-2.5-3.3-5-6.6-7.3-9.8c-5.3-7.2-4.5-17.3,1.8-23.6
	l15.8-15.8c6.3-6.3,16.5-7.1,23.6-1.8c3.2,2.4,6.5,4.9,9.8,7.4c6.3-3.4,13-6.2,19.8-8.2c0.5-4.1,1.1-8.1,1.7-12.1
	c1.3-8.8,9-15.4,18-15.4h22.4c8.9,0,16.6,6.6,18,15.4c0.6,4,1.2,8,1.7,12.1c6.9,2.1,13.5,4.8,19.8,8.2c3.3-2.5,6.5-5,9.8-7.4
	c7.1-5.3,17.3-4.5,23.6,1.8L481.8,46c6.3,6.3,7.1,16.5,1.8,23.6c-2.4,3.2-4.9,6.5-7.4,9.8c3.4,6.3,6.2,13,8.2,19.8
	c4.1,0.6,8.1,1.1,12.1,1.7C505.4,102.3,512,110,512,118.9z M490.2,138.1V122c-3.6-0.5-7.3-1-10.9-1.5c-7.3-1-13.2-6.1-15.2-13.2
	c-1.9-6.7-4.5-13.2-8-19.3c-3.6-6.3-3-14.2,1.4-20c2.3-2.9,4.5-5.9,6.7-8.8l-11.4-11.4c-2.9,2.2-5.9,4.4-8.8,6.7
	c-5.8,4.5-13.7,5-20,1.4c-6.1-3.5-12.6-6.2-19.3-8c-7-1.9-12.2-7.9-13.2-15.2c-0.5-3.7-1-7.3-1.5-10.9h-16.1
	c-0.5,3.6-1,7.3-1.5,10.9c-1,7.3-6.1,13.2-13.2,15.2c-6.7,1.9-13.2,4.5-19.3,8c-6.4,3.6-14.2,3-20-1.4c-2.9-2.2-5.9-4.5-8.8-6.7
	l-11.4,11.4c2.2,2.9,4.4,5.9,6.7,8.8c4.5,5.8,5,13.7,1.4,20c-3.5,6.1-6.2,12.6-8,19.3c-1.9,7-7.9,12.2-15.2,13.2
	c-3.7,0.5-7.3,1-10.9,1.5v16.1c3.6,0.5,7.3,1,10.9,1.5c7.3,1,13.2,6.1,15.2,13.2c1.9,6.7,4.5,13.2,8,19.3c3.6,6.4,3.1,14.2-1.4,20
	c-2.3,2.9-4.5,5.9-6.7,8.8l11.4,11.4c2.9-2.2,5.9-4.4,8.8-6.7c5.8-4.5,13.7-5,20-1.4c6.1,3.5,12.6,6.2,19.3,8
	c7,1.9,12.2,7.9,13.2,15.2c0.5,3.7,1,7.3,1.5,10.9H390c0.5-3.6,1-7.3,1.5-10.9c1-7.3,6.1-13.2,13.2-15.2c6.7-1.9,13.2-4.5,19.3-8
	c6.4-3.6,14.2-3.1,20,1.4c2.9,2.2,5.9,4.5,8.8,6.7l11.4-11.4c-2.2-2.9-4.4-5.9-6.7-8.8c-4.5-5.8-5-13.7-1.4-20
	c3.5-6.1,6.2-12.6,8-19.3c1.9-7,7.9-12.2,15.2-13.2C483,139.2,486.6,138.7,490.2,138.1z"/>
<path class="st0" d="M496.1,121.6v17c-3.8,0.5-7.7,1.1-11.5,1.6c-7.7,1-13.9,6.4-16,13.9c-2,7.1-4.8,14-8.4,20.4
	c-3.8,6.7-3.2,15,1.5,21.1c2.4,3.1,4.7,6.2,7,9.3l-12,12c-3.1-2.3-6.2-4.7-9.3-7c-6.1-4.7-14.4-5.3-21.1-1.5
	c-6.4,3.6-13.3,6.5-20.4,8.4c-7.4,2-12.9,8.3-13.9,16c-0.5,3.9-1,7.7-1.6,11.5h-17c-0.5-3.8-1.1-7.6-1.6-11.5
	c-1-7.7-6.4-13.9-13.9-16c-7.1-2-14-4.8-20.4-8.4c-6.7-3.8-15-3.2-21.1,1.5c-3.1,2.4-6.2,4.7-9.3,7l-12-12c2.3-3.1,4.7-6.2,7-9.3
	c4.7-6.1,5.3-14.4,1.5-21.1c-3.6-6.4-6.5-13.3-8.4-20.4c-2-7.4-8.3-12.9-16-13.9c-3.9-0.5-7.7-1-11.5-1.6v-17
	c3.8-0.5,7.6-1.1,11.5-1.6c7.7-1,13.9-6.5,16-13.9c2-7.1,4.8-14,8.4-20.4c3.8-6.7,3.2-15-1.5-21.1c-2.4-3.1-4.7-6.2-7-9.3l12-12
	c3.1,2.3,6.2,4.7,9.3,7c6.1,4.7,14.4,5.3,21.1,1.5c6.4-3.6,13.3-6.5,20.4-8.4c7.4-2,12.9-8.3,13.9-16c0.5-3.9,1-7.7,1.6-11.5h17
	c0.5,3.8,1.1,7.7,1.6,11.5c1,7.7,6.4,14,13.9,16c7.1,2,14,4.8,20.4,8.4c6.7,3.8,15,3.2,21.1-1.5c3.1-2.4,6.2-4.7,9.3-7l12,12
	c-2.3,3.1-4.7,6.2-7,9.3c-4.7,6.1-5.3,14.4-1.5,21.1c3.6,6.4,6.5,13.3,8.4,20.4c2,7.4,8.3,12.9,16,13.9
	C488.5,120.5,492.3,121,496.1,121.6z M430.8,130.1c0-27-21.9-48.9-48.9-48.9S333,103.1,333,130.1s21.9,48.9,48.9,48.9
	S430.8,157.1,430.8,130.1z"/>
<g>
	<path class="st1" d="M337.6,289.5c4,9.7,0.3,21.2-8.7,26.6c-5.4,3.2-10.9,6.5-16.4,9.7c1.3,11,1.3,22.3,0,33.3
		c5.5,3.2,11,6.4,16.4,9.7c9,5.4,12.8,16.9,8.7,26.6l-11.8,28.4c-4,9.8-14.8,15.2-25,12.6c-6.1-1.5-12.3-3.1-18.5-4.8
		c-6.9,8.7-14.8,16.7-23.5,23.6c1.7,6.2,3.3,12.4,4.8,18.4c2.5,10.2-2.9,21-12.6,25l-28.4,11.8c-9.8,4-21.2,0.3-26.6-8.7
		c-3.2-5.4-6.5-10.9-9.7-16.4c-11.1,1.3-22.3,1.3-33.3,0c-3.2,5.6-6.5,11.1-9.7,16.4c-4,6.6-11.1,10.4-18.5,10.4
		c-2.7,0-5.5-0.5-8.1-1.6l-28.4-11.8c-9.7-4-15.2-14.8-12.6-25c1.5-6.1,3.1-12.3,4.8-18.5c-8.7-6.9-16.7-14.8-23.6-23.5
		c-6.2,1.7-12.4,3.3-18.4,4.8c-10.2,2.5-21-2.9-25-12.6L1.6,395.3c-4-9.8-0.3-21.2,8.7-26.6c5.4-3.2,10.9-6.5,16.4-9.7
		c-1.3-11.1-1.3-22.3,0-33.3c-5.5-3.2-11.1-6.4-16.4-9.7c-9-5.4-12.8-16.9-8.7-26.6l11.8-28.4c4-9.8,14.8-15.2,25-12.6
		c6.1,1.5,12.3,3.1,18.5,4.8c6.9-8.7,14.8-16.7,23.5-23.6c-1.7-6.2-3.3-12.4-4.8-18.4c-2.5-10.2,2.9-21,12.6-25l28.4-11.8
		c9.8-4,21.2-0.3,26.6,8.7c3.2,5.4,6.5,10.9,9.7,16.4c11.1-1.3,22.3-1.3,33.3,0c3.2-5.5,6.4-11.1,9.7-16.4c5.4-9,16.9-12.8,26.6-8.7
		l28.4,11.8c9.7,4,15.2,14.8,12.6,25c-1.5,6.1-3.1,12.3-4.8,18.5c8.7,6.9,16.7,14.8,23.6,23.5c6.2-1.7,12.4-3.3,18.4-4.8
		c10.2-2.5,21,2.9,25,12.6L337.6,289.5C337.6,289.5,337.6,289.5,337.6,289.5z M315.9,297.1L305.1,271c-5.8,1.5-11.8,3-17.7,4.6
		c-8.4,2.2-17.2-0.7-22.5-7.5c-6.1-7.8-13.1-14.9-21-21c-6.8-5.3-9.8-14.2-7.5-22.5c1.6-5.9,3.1-11.9,4.6-17.7l-26.1-10.8
		c-3.1,5.2-6.2,10.5-9.3,15.8c-4.3,7.5-12.6,11.7-21.2,10.6c-9.9-1.2-19.8-1.2-29.7,0c-8.5,1.1-16.9-3.1-21.2-10.6
		c-3.1-5.3-6.2-10.6-9.3-15.8l-26.1,10.8c1.5,5.8,3,11.8,4.6,17.7c2.2,8.4-0.7,17.2-7.5,22.5c-7.8,6.1-14.9,13.1-21,21
		c-5.3,6.8-14.2,9.8-22.5,7.5c-5.9-1.6-11.9-3.2-17.7-4.6l-10.8,26.1c5.2,3.1,10.5,6.2,15.8,9.3c7.5,4.3,11.7,12.7,10.6,21.2
		c-1.2,9.8-1.2,19.8,0,29.7c1.1,8.6-3.1,16.9-10.6,21.2c-5.3,3.1-10.6,6.2-15.8,9.3l10.8,26.1c5.8-1.5,11.8-3,17.7-4.6
		c8.4-2.2,17.2,0.7,22.5,7.5c6.1,7.8,13.1,14.9,21,21c6.8,5.3,9.8,14.2,7.5,22.5c-1.6,5.9-3.2,11.9-4.6,17.7l26.1,10.8
		c3.1-5.1,6.2-10.4,9.3-15.8c4.3-7.5,12.6-11.7,21.2-10.6c9.8,1.2,19.8,1.2,29.7,0c8.6-1.1,16.9,3.1,21.2,10.6
		c3,5.3,6.2,10.6,9.3,15.8l26.1-10.8c-1.5-5.8-3-11.7-4.6-17.7c-2.2-8.4,0.7-17.2,7.5-22.5c7.8-6.1,14.9-13.1,21-21
		c5.3-6.8,14.1-9.8,22.5-7.5c5.9,1.6,11.9,3.1,17.7,4.6l10.8-26.1c-5.2-3.1-10.5-6.2-15.8-9.3c-7.5-4.3-11.7-12.7-10.6-21.2
		c1.2-9.8,1.2-19.8,0-29.7c-1.1-8.6,3.1-16.9,10.6-21.2C305.5,303.3,310.8,300.2,315.9,297.1z"/>
</g>
<path class="st1" d="M314.4,266L326,294c-5.5,3.3-11.2,6.6-16.8,9.9c-8,4.6-12.5,13.5-11.4,22.7c1.3,10.5,1.3,21.2,0,31.7
	c-1.1,9.2,3.3,18.1,11.3,22.7c5.7,3.3,11.3,6.6,16.9,9.9l-11.6,27.9c-6.2-1.6-12.6-3.2-18.9-4.9c-9-2.4-18.4,0.7-24.1,8
	c-6.5,8.4-14.1,15.9-22.4,22.4c-7.3,5.7-10.4,15.1-8,24.1c1.7,6.4,3.4,12.7,4.9,18.9L218,498.8c-3.3-5.5-6.6-11.2-9.9-16.8
	c-4.6-8-13.5-12.5-22.7-11.4c-10.5,1.3-21.2,1.3-31.7,0c-9.2-1.1-18.1,3.3-22.7,11.3c-3.3,5.7-6.6,11.4-9.9,16.9l-27.9-11.6
	c1.6-6.2,3.2-12.6,4.9-18.9c2.4-8.9-0.7-18.4-8-24.1c-8.4-6.5-15.9-14-22.4-22.4c-5.7-7.3-15.1-10.4-24.1-8
	c-6.3,1.7-12.7,3.4-18.9,4.9l-11.6-27.9c5.5-3.3,11.2-6.6,16.8-9.9c8-4.6,12.5-13.5,11.4-22.7c-1.3-10.5-1.3-21.2,0-31.7
	c1.2-9.2-3.3-18.1-11.3-22.7c-5.7-3.3-11.3-6.6-16.9-9.9L24.8,266c6.2,1.6,12.6,3.2,18.9,4.9c8.9,2.4,18.4-0.7,24.1-8
	c6.5-8.4,14-15.9,22.4-22.4c7.3-5.7,10.4-15.1,8-24.1c-1.7-6.3-3.4-12.7-4.9-18.9l27.9-11.6c3.3,5.5,6.6,11.2,9.9,16.8
	c4.6,8,13.5,12.5,22.7,11.4c10.5-1.3,21.2-1.3,31.7,0c9.2,1.2,18.1-3.3,22.7-11.3c3.3-5.7,6.6-11.3,9.9-16.9l27.9,11.6
	c-1.6,6.2-3.2,12.6-4.9,18.9c-2.4,8.9,0.7,18.4,8,24.1c8.4,6.5,15.9,14,22.4,22.4c5.7,7.3,15.1,10.4,24.1,8
	C301.9,269.3,308.2,267.6,314.4,266z M253.1,342.3c0-10.6-2-21.4-6.4-31.8c-17.6-42.5-66.5-62.8-109.1-45.2
	c-42.5,17.6-62.8,66.5-45.2,109.1c8.5,20.6,24.6,36.7,45.2,45.2c10.3,4.3,21.1,6.4,31.9,6.4c10.8,0,21.6-2.1,31.9-6.4
	C233.7,406.2,253.1,375.1,253.1,342.3z"/>
</svg>
