<?xml version="1.0" encoding="utf-8"?>
<!-- Generator: Adobe Illustrator 21.1.0, SVG Export Plug-In . SVG Version: 6.00 Build 0)  -->
<svg version="1.1" id="Calque_1" xmlns="http://www.w3.org/2000/svg" xmlns:xlink="http://www.w3.org/1999/xlink" x="0px" y="0px"
	 viewBox="0 0 50.4 15.6" style="enable-background:new 0 0 50.4 15.6;" xml:space="preserve">
<style type="text/css">
	.st0{fill:#C16B6B;}
	.st1{fill:#FFFFFF;}
</style>
<path class="st0" d="M42.6,0H7.8C3.5,0,0,3.5,0,7.8s3.5,7.8,7.8,7.8c0,0,0,0,0,0h34.8c4.3,0,7.8-3.5,7.8-7.8C50.4,3.5,46.9,0,42.6,0
	z"/>
<g>
	<path class="st1" d="M6.4,10.1c0-0.1,0-0.2,0.1-0.3l0.3-0.4C6.8,9.3,6.9,9.3,7,9.2c0,0,0,0,0.1,0c0.1,0,0.2,0,0.3,0.1
		c0,0,0,0,0.1,0.1s0.1,0.1,0.2,0.1c0,0,0.1,0.1,0.2,0.1c0.1,0,0.2,0.1,0.3,0.1s0.2,0,0.3,0c0.2,0,0.3,0,0.4-0.1C8.9,9.5,9,9.4,9,9.3
		c0-0.1,0-0.2-0.1-0.2C8.8,9,8.8,8.9,8.7,8.9C8.6,8.8,8.5,8.7,8.3,8.7C8.2,8.6,8.1,8.6,7.9,8.5S7.6,8.4,7.5,8.3S7.2,8.2,7.1,8.1
		C7,8,6.9,7.9,6.8,7.8C6.7,7.6,6.6,7.5,6.5,7.3C6.5,7.2,6.5,7,6.5,6.8c0-0.5,0.2-0.9,0.6-1.3s0.9-0.5,1.5-0.5c0.3,0,0.6,0,0.9,0.1
		C9.7,5.3,9.9,5.4,10,5.5c0.1,0.1,0.2,0.2,0.2,0.3c0,0.1,0,0.2-0.1,0.3L10,6.5c0,0.1-0.1,0.1-0.1,0.2c0,0-0.1,0.1-0.1,0.1
		c-0.1,0-0.1,0-0.2,0c0,0-0.1,0-0.2-0.1C9.3,6.5,9.2,6.5,9.1,6.5C9,6.4,8.9,6.4,8.8,6.4c-0.1,0-0.2,0-0.4,0c-0.2,0-0.4,0-0.5,0.1
		C7.9,6.5,7.9,6.6,7.9,6.7c0,0.1,0,0.2,0.1,0.2s0.1,0.1,0.2,0.2c0.1,0.1,0.2,0.1,0.3,0.2c0.1,0.1,0.3,0.1,0.4,0.2
		C9,7.6,9.2,7.6,9.3,7.7s0.3,0.1,0.4,0.2C9.9,8,10,8.1,10.1,8.3s0.2,0.3,0.2,0.4s0.1,0.3,0.1,0.5c0,0.2,0,0.5-0.1,0.7
		c-0.1,0.2-0.2,0.4-0.4,0.6c-0.2,0.2-0.4,0.3-0.6,0.4C9,10.9,8.7,11,8.4,11c-0.4,0-0.7-0.1-1-0.2c-0.3-0.1-0.6-0.2-0.8-0.4
		c-0.1-0.1-0.1-0.1-0.1-0.2C6.4,10.2,6.4,10.2,6.4,10.1C6.4,10.1,6.4,10.1,6.4,10.1z"/>
	<path class="st1" d="M11.2,10.4V5.6c0-0.3,0.1-0.4,0.4-0.4h0.5c0.3,0,0.4,0.1,0.4,0.4v4.8c0,0.3-0.1,0.4-0.4,0.4h-0.5
		C11.3,10.9,11.2,10.7,11.2,10.4z"/>
	<path class="st1" d="M13.4,8.1c0-0.4,0.1-0.8,0.2-1.2s0.4-0.7,0.6-0.9s0.6-0.5,1-0.6s0.8-0.2,1.2-0.2c0.4,0,0.8,0.1,1.1,0.2
		s0.6,0.2,0.7,0.3c0.1,0.1,0.2,0.2,0.2,0.3c0,0.1,0,0.2-0.1,0.3l-0.2,0.3c-0.1,0.1-0.2,0.2-0.3,0.2c0,0,0,0-0.1,0
		c-0.1,0-0.2,0-0.3-0.1c-0.1-0.1-0.2-0.1-0.3-0.1s-0.2-0.1-0.3-0.1s-0.3,0-0.4,0c-0.3,0-0.5,0-0.7,0.1s-0.4,0.2-0.5,0.4
		S15,7.2,14.9,7.4S14.8,7.8,14.8,8c0,0.3,0,0.5,0.1,0.7s0.2,0.4,0.4,0.5s0.3,0.3,0.5,0.3c0.2,0.1,0.4,0.1,0.6,0.1c0.2,0,0.3,0,0.4,0
		s0.2-0.1,0.3-0.1s0.2-0.1,0.2-0.1s0.1-0.1,0.1-0.1l0,0V8.8h-0.4c-0.3,0-0.4-0.1-0.4-0.4V8.1c0-0.3,0.1-0.4,0.4-0.4h1.2
		c0.3,0,0.4,0.1,0.4,0.4v2.4c0,0.3-0.1,0.4-0.4,0.4h-0.3c-0.1,0-0.2,0-0.3-0.1c-0.1-0.1-0.1-0.1-0.1-0.2v0l0-0.1h0c0,0,0,0-0.1,0.1
		s-0.1,0.1-0.2,0.1s-0.2,0.1-0.3,0.2s-0.3,0.1-0.4,0.1S16.4,11,16.2,11c-0.4,0-0.7-0.1-1.1-0.2c-0.3-0.1-0.6-0.3-0.9-0.6
		s-0.5-0.6-0.6-0.9C13.5,8.9,13.4,8.5,13.4,8.1z"/>
	<path class="st1" d="M19.8,10.4V5.6c0-0.3,0.1-0.4,0.4-0.4h0.6c0.2,0,0.4,0.1,0.5,0.3l1.4,2.4c0.1,0.1,0.1,0.2,0.2,0.4
		c0.1,0.2,0.1,0.3,0.2,0.4l0.1,0.2h0c0-0.4-0.1-0.7-0.1-1V5.6c0-0.3,0.1-0.4,0.4-0.4h0.5c0.3,0,0.4,0.1,0.4,0.4v4.8
		c0,0.3-0.1,0.4-0.4,0.4h-0.6c-0.2,0-0.4-0.1-0.5-0.3l-1.4-2.4c-0.1-0.1-0.1-0.2-0.2-0.4c-0.1-0.2-0.1-0.3-0.2-0.4l-0.1-0.2h0
		c0,0.4,0.1,0.7,0.1,1v2.2c0,0.3-0.1,0.4-0.4,0.4h-0.5C19.9,10.9,19.8,10.7,19.8,10.4z"/>
	<path class="st1" d="M25.3,10.4l1.7-4.9c0.1-0.2,0.2-0.4,0.5-0.4h0.7c0.3,0,0.4,0.1,0.5,0.4l1.7,4.9c0,0.1,0,0.1,0,0.2
		c0,0.1,0,0.1-0.1,0.2c-0.1,0.1-0.2,0.1-0.3,0.1h-0.5c-0.3,0-0.4-0.1-0.5-0.4l-0.2-0.8h-1.8l-0.2,0.8c-0.1,0.2-0.2,0.4-0.5,0.4h-0.5
		c-0.2,0-0.3,0-0.3-0.1c0-0.1-0.1-0.1-0.1-0.2C25.2,10.5,25.2,10.4,25.3,10.4z M27.2,8.6h1.1L28,7.4c0-0.1-0.1-0.2-0.1-0.4
		s-0.1-0.3-0.1-0.4l0-0.2h0c-0.1,0.4-0.2,0.7-0.2,1L27.2,8.6z"/>
	<path class="st1" d="M30.9,10.4V5.6c0-0.3,0.1-0.4,0.4-0.4h0.5c0.3,0,0.4,0.1,0.4,0.4v4.1h1.9c0.3,0,0.4,0.1,0.4,0.4v0.3
		c0,0.3-0.1,0.4-0.4,0.4h-2.9C31.1,10.9,30.9,10.7,30.9,10.4z"/>
	<path class="st1" d="M35.2,10.4V5.6c0-0.3,0.1-0.4,0.4-0.4h2.7c0.3,0,0.4,0.1,0.4,0.4v0.3c0,0.3-0.1,0.4-0.4,0.4h-1.7v1h1.3
		c0.3,0,0.4,0.1,0.4,0.4v0.3c0,0.3-0.1,0.4-0.4,0.4h-1.3v1.1h1.9c0.3,0,0.4,0.1,0.4,0.4v0.3c0,0.3-0.1,0.4-0.4,0.4h-2.8
		C35.4,10.9,35.2,10.7,35.2,10.4z"/>
	<path class="st1" d="M39.7,10.4V5.6c0-0.3,0.1-0.4,0.4-0.4h1.6c0.5,0,0.9,0,1.1,0.1c0.3,0.1,0.6,0.3,0.8,0.6s0.3,0.6,0.3,1
		c0,0.3-0.1,0.6-0.2,0.9c-0.1,0.3-0.4,0.5-0.6,0.6v0c0.1,0.1,0.1,0.2,0.2,0.3l0.8,1.5c0.1,0.1,0.1,0.2,0.1,0.2c0,0,0,0.1,0,0.1
		c-0.1,0.1-0.2,0.1-0.3,0.1h-0.6c-0.2,0-0.4-0.1-0.5-0.3L41.8,9h-0.7v1.5c0,0.3-0.1,0.4-0.4,0.4h-0.5C39.9,10.9,39.7,10.7,39.7,10.4
		z M41.1,7.8h0.6c0.2,0,0.4-0.1,0.5-0.2s0.2-0.3,0.2-0.5c0-0.2,0-0.3-0.1-0.4s-0.1-0.2-0.3-0.2c-0.1-0.1-0.3-0.1-0.5-0.1h-0.5V7.8z"
		/>
</g>
</svg>
