<svg xmlns="http://www.w3.org/2000/svg" viewBox="0 0 47.51 42.4"><defs><style>.cls-1{fill:#88a89e;}.cls-2{fill:#a8cec3;}.cls-3{fill:#312f42;}.cls-4{fill:#706f7c;}</style></defs><title>topic lock</title><g id="Calque_2" data-name="Calque 2"><g id="Calque_1-2" data-name="Calque 1"><path class="cls-1" d="M21.84,19.75H43c1.87,0,3.39-1.89,3.39-4.21V9.81C46.4,7.49,44.88,5.6,43,5.6H19.9c-2.43,0-4.07,3.07-3.13,5.84l1.94,5.73A3.47,3.47,0,0,0,21.84,19.75Zm-2.26,0"/><path class="cls-2" d="M20,5.6,16.85,1.19A2.84,2.84,0,0,0,14.54,0H2.84A2.84,2.84,0,0,0,0,2.84V38A2.84,2.84,0,0,0,2.84,40.8H43.56A2.84,2.84,0,0,0,46.4,38V14a2.84,2.84,0,0,0-2.84-2.84H25.46A2.84,2.84,0,0,1,23.15,10Zm0,0"/><rect class="cls-3" x="31.51" y="29.6" width="16" height="12.8"/><path class="cls-4" d="M41.91,35.2a2.4,2.4,0,1,0-3.17,2.26.8.8,0,0,0,0,.14v1.6a.8.8,0,1,0,1.6,0V37.6a.8.8,0,0,0,0-.14,2.39,2.39,0,0,0,1.63-2.26Zm0,0"/><path class="cls-4" d="M35.51,28a4,4,0,0,1,8,0v1.6h1.6V28a5.6,5.6,0,1,0-11.2,0v1.6h1.6Zm0,0"/></g></g></svg>