<svg xmlns="http://www.w3.org/2000/svg" viewBox="0 0 46.4 40.8"><defs><style>.cls-1{fill:#88a89e;}.cls-2{fill:#a8cec3;}</style></defs><title>topic</title><g id="Calque_2" data-name="Calque 2"><g id="Calque_1-2" data-name="Calque 1"><path class="cls-1" d="M21.84,19.75H43c1.87,0,3.39-1.89,3.39-4.21V9.81C46.4,7.49,44.88,5.6,43,5.6H19.9c-2.43,0-4.07,3.07-3.13,5.84l1.94,5.73A3.47,3.47,0,0,0,21.84,19.75Zm-2.26,0"/><path class="cls-2" d="M20,5.6,16.85,1.19A2.84,2.84,0,0,0,14.54,0H2.84A2.84,2.84,0,0,0,0,2.84V38A2.84,2.84,0,0,0,2.84,40.8H43.56A2.84,2.84,0,0,0,46.4,38V14a2.84,2.84,0,0,0-2.84-2.84H25.46A2.84,2.84,0,0,1,23.15,10Zm0,0"/></g></g></svg>