<?xml version="1.0" encoding="iso-8859-1"?>
<!-- Generator: Adobe Illustrator 19.0.0, SVG Export Plug-In . SVG Version: 6.00 Build 0)  -->
<svg version="1.1" id="Layer_1" xmlns="http://www.w3.org/2000/svg" xmlns:xlink="http://www.w3.org/1999/xlink" x="0px" y="0px"
	 viewBox="0 0 512 512" style="enable-background:new 0 0 512 512;" xml:space="preserve">
<g>
	<path style="fill:#DD4A5F;" d="M256,91.429c-30.299,0-54.857,24.558-54.857,54.857s24.558,54.857,54.857,54.857
		c30.299,0,54.857-24.558,54.857-54.857S286.299,91.429,256,91.429"/>
	<path style="fill:#DD4A5F;" d="M155.429,201.143c-30.299,0-54.857,24.558-54.857,54.857c0,30.299,24.558,54.857,54.857,54.857
		s54.857-24.558,54.857-54.857C210.286,225.701,185.728,201.143,155.429,201.143"/>
	<path style="fill:#DD4A5F;" d="M54.857,310.857C24.558,310.857,0,335.415,0,365.714c0,30.299,24.558,54.857,54.857,54.857
		s54.857-24.558,54.857-54.857C109.714,335.415,85.157,310.857,54.857,310.857"/>
	<path style="fill:#DD4A5F;" d="M356.571,201.143c-30.299,0-54.857,24.558-54.857,54.857c0,30.299,24.558,54.857,54.857,54.857
		c30.299,0,54.857-24.558,54.857-54.857C411.429,225.701,386.871,201.143,356.571,201.143"/>
	<path style="fill:#DD4A5F;" d="M457.143,310.857c-30.299,0-54.857,24.558-54.857,54.857c0,30.299,24.558,54.857,54.857,54.857
		c30.299,0,54.857-24.558,54.857-54.857C512,335.415,487.442,310.857,457.143,310.857"/>
</g>
<g>
</g>
<g>
</g>
<g>
</g>
<g>
</g>
<g>
</g>
<g>
</g>
<g>
</g>
<g>
</g>
<g>
</g>
<g>
</g>
<g>
</g>
<g>
</g>
<g>
</g>
<g>
</g>
<g>
</g>
</svg>
