<?xml version="1.0" encoding="utf-8"?>
<!-- Generator: Adobe Illustrator 21.1.0, SVG Export Plug-In . SVG Version: 6.00 Build 0)  -->
<svg version="1.1" id="Layer_1" xmlns="http://www.w3.org/2000/svg" xmlns:xlink="http://www.w3.org/1999/xlink" x="0px" y="0px"
	 viewBox="0 0 512 631.7" style="enable-background:new 0 0 512 631.7;" xml:space="preserve">
<style type="text/css">
	.st0{fill:#A8CEC3;}
</style>
<title>down</title>
<path class="st0" d="M256,151.3c-30.3,0-54.9,24.6-54.9,54.9S225.7,261,256,261s54.9-24.6,54.9-54.9l0,0
	C310.9,175.8,286.3,151.3,256,151.3C256,151.3,256,151.3,256,151.3"/>
<path class="st0" d="M155.4,261c-30.3,0-54.9,24.6-54.9,54.9s24.6,54.9,54.9,54.9s54.9-24.6,54.9-54.9v0
	C210.3,285.6,185.7,261,155.4,261C155.4,261,155.4,261,155.4,261"/>
<path class="st0" d="M54.9,370.7C24.6,370.7,0,395.3,0,425.6s24.6,54.9,54.9,54.9s54.9-24.6,54.9-54.9c0,0,0,0,0,0
	C109.7,395.3,85.2,370.7,54.9,370.7C54.9,370.7,54.9,370.7,54.9,370.7"/>
<path class="st0" d="M356.6,261c-30.3,0-54.9,24.6-54.9,54.9c0,30.3,24.6,54.9,54.9,54.9s54.9-24.6,54.9-54.9l0,0
	C411.4,285.6,386.9,261,356.6,261C356.6,261,356.6,261,356.6,261"/>
<path class="st0" d="M457.1,370.7c-30.3,0-54.9,24.6-54.9,54.9c0,30.3,24.6,54.9,54.9,54.9s54.9-24.6,54.9-54.9c0,0,0,0,0,0
	C512,395.3,487.5,370.7,457.1,370.7C457.2,370.7,457.1,370.7,457.1,370.7"/>
</svg>
