<?xml version="1.0" encoding="utf-8"?>
<!-- Generator: Adobe Illustrator 21.1.0, SVG Export Plug-In . SVG Version: 6.00 Build 0)  -->
<svg version="1.1" id="Layer_1" xmlns="http://www.w3.org/2000/svg" xmlns:xlink="http://www.w3.org/1999/xlink" x="0px" y="0px"
	 viewBox="0 0 756.2 655.4" style="enable-background:new 0 0 756.2 655.4;" xml:space="preserve">
<style type="text/css">
	.st0{display:none;fill:#262626;}
	.st1{fill:#FFFFFF;}
	.st2{fill:#FDFF87;}
</style>
<rect x="-121.8" y="-201.6" class="st0" width="967" height="857"/>
<path class="st1" d="M400.3,0H33.3C15,0,0,15,0,33.3v233.5c0,18.3,15,33.4,33.3,33.4h66.7v100.1l125.1-100.1h175.1
	c18.3,0,33.3-15,33.3-33.4V33.3C433.6,15,418.6,0,400.3,0z M91.5,176.4c-21,0-38.1-17.1-38.1-38.1c0-21,17.1-38.1,38.1-38.1
	c21,0,38.1,17.1,38.1,38.1C129.6,159.3,112.5,176.4,91.5,176.4z M216.6,176.4c-21,0-38.1-17.1-38.1-38.1c0-21,17.1-38.1,38.1-38.1
	s38.1,17.1,38.1,38.1C254.7,159.3,237.7,176.4,216.6,176.4z M341.9,176.4c-21,0-38.1-17.1-38.1-38.1c0-21,17.1-38.1,38.1-38.1
	c21,0,38.1,17.1,38.1,38.1C380,159.3,363,176.4,341.9,176.4z"/>
<path class="st2" d="M716.8,182.8H283.6c-21.7,0-39.4,17.7-39.4,39.4v275.7c0,21.7,17.7,39.4,39.4,39.4h206.8L638,655.4V537.2h78.8
	c21.7,0,39.4-17.7,39.4-39.4V222.2C756.2,200.5,738.4,182.8,716.8,182.8z M380.7,396.4c-20.1,0-36.4-16.3-36.4-36.4
	c0-20.1,16.3-36.4,36.4-36.4c20.1,0,36.4,16.3,36.4,36.4C417.1,380.1,400.8,396.4,380.7,396.4z M500.3,396.4
	c-20.1,0-36.4-16.3-36.4-36.4c0-20.1,16.3-36.4,36.4-36.4c20.1,0,36.4,16.3,36.4,36.4C536.7,380.1,520.4,396.4,500.3,396.4z
	 M619.9,396.4c-20.1,0-36.4-16.3-36.4-36.4c0-20.1,16.3-36.4,36.4-36.4c20.1,0,36.4,16.3,36.4,36.4
	C656.2,380.1,640,396.4,619.9,396.4z"/>
</svg>
