<?xml version="1.0" encoding="iso-8859-1"?>
<!-- Generator: Adobe Illustrator 18.0.0, SVG Export Plug-In . SVG Version: 6.00 Build 0)  -->
<!DOCTYPE svg PUBLIC "-//W3C//DTD SVG 1.1//EN" "http://www.w3.org/Graphics/SVG/1.1/DTD/svg11.dtd">
<svg xmlns="http://www.w3.org/2000/svg" xmlns:xlink="http://www.w3.org/1999/xlink" version="1.1" id="Capa_1" x="0px" y="0px" viewBox="0 0 366.684 366.684" style="enable-background:new 0 0 366.684 366.684;" xml:space="preserve" width="512px" height="512px">
<path id="_x30_8-3D_Glass" d="M359.525,102.316c-7.727-10.592-20.791-16.426-36.781-16.426l-101.307,0.1l-14.619,45.602h9.65  l-2.732,3.201H14.5c-8.008,0-14.5,6.492-14.5,14.5v117c0,8.008,6.492,14.5,14.5,14.5h119c5.928,0,11.26-3.61,13.463-9.115  l10.537-26.343l10.537,26.343c2.201,5.505,7.533,9.115,13.463,9.115h119c8.008,0,14.5-6.492,14.5-14.5v-80.132  c8.73-1.996,16.994-5.691,24.406-10.979c11.746-8.379,20.236-19.931,24.557-33.405C368.756,126.822,367.18,112.809,359.525,102.316z   M221.197,150.693c3.406,5.6,8.477,8.5,14.777,8.5c7,0,11.891-3.4,13.717-9.1c1.893-5.9-1.078-8.801-8.078-8.801h-11.201  l3.047-9.501l20.793-16.2H228.75l4.359-13.602h46.203l-3.238,10.101l-23.334,18.201l3.139,0.5  c9.689,1.601,14.74,8.301,11.279,19.101c-4.297,13.401-17.811,22.802-34.111,22.802c-9.6,0-18.611-3.399-23.377-8.501  L221.197,150.693z M286,251.793h-94.684l-20.354-50.885c-2.203-5.505-7.535-9.115-13.463-9.115c-5.93,0-11.262,3.61-13.463,9.115  l-20.355,50.885H29v-88h159.973l-0.75,0.879l9.756,10.444c7.941,8.503,21.053,13.579,35.068,13.579  c5.447,0,10.717-0.764,15.672-2.198l-0.447,1.398H286V251.793z M348.727,136.893c-6.637,20.701-26.621,35.002-49.123,35.002h-29.402  l14.887-46.438h17.801l-10.332,32.236h12.699c10.902,0,21.395-8.4,25.338-20.701c3.975-12.4-1.502-20.9-12.803-20.9l-29.697-0.01  l4.549-14.191h30.102C344.746,101.891,355.395,116.092,348.727,136.893z" fill="#FFFFFF"/>
<g>
</g>
<g>
</g>
<g>
</g>
<g>
</g>
<g>
</g>
<g>
</g>
<g>
</g>
<g>
</g>
<g>
</g>
<g>
</g>
<g>
</g>
<g>
</g>
<g>
</g>
<g>
</g>
<g>
</g>
</svg>
