<?xml version="1.0" encoding="utf-8"?>
<!-- Generator: Adobe Illustrator 21.1.0, SVG Export Plug-In . SVG Version: 6.00 Build 0)  -->
<svg version="1.1" id="Capa_1" xmlns="http://www.w3.org/2000/svg" xmlns:xlink="http://www.w3.org/1999/xlink" x="0px" y="0px"
	 viewBox="0 0 56 56" style="enable-background:new 0 0 56 56;" xml:space="preserve">
<style type="text/css">
	.st0{fill:#E9E9E0;}
	.st1{fill:#D9D7CA;}
	.st2{fill:#D75E72;}
	.st3{display:none;}
	.st4{display:inline;fill:#FFFFFF;}
	.st5{fill:#C8BDB8;}
	.st6{fill:#FFFFFF;}
	.st7{font-family:'TTNorms-BlackItalic';}
	.st8{font-size:12px;}
</style>
<g>
	<path class="st0" d="M37,0H8C7.2,0,6.5,0.7,6.5,1.9V55c0,0.3,0.7,1,1.5,1H48c0.8,0,1.5-0.7,1.5-1V13c0-0.7-0.1-0.9-0.3-1.1
		L37.6,0.3C37.4,0.1,37.2,0,37,0z"/>
	<polygon class="st1" points="37.5,0.2 37.5,12 49.3,12 	"/>
	<path class="st2" d="M48,56H8c-0.8,0-1.5-0.7-1.5-1.5V39h43v15.5C49.5,55.3,48.8,56,48,56z"/>
	<g class="st3">
		<path class="st4" d="M16.4,53l3.5-10.1h1.6L25,53h-1.7l-0.7-2.1h-3.8L18.1,53H16.4z M19.2,49.8h3l-1.5-4.3L19.2,49.8z"/>
		<path class="st4" d="M29.8,53.1l-3.1-10.1h1.9l2.3,8.7l2.5-8.7h1.9L32,53.1H29.8z"/>
		<path class="st4" d="M39,53h-1.7V42.9H39V53z"/>
	</g>
	<polygon class="st5" points="23.5,28 23.5,21 23.5,14 34.5,21 	"/>
</g>
<text transform="matrix(1 0 0 1 17.3915 51.6803)" class="st6 st7 st8">AVI</text>
</svg>
