<svg id="BACKGROUND_2" data-name="BACKGROUND 2" xmlns="http://www.w3.org/2000/svg" viewBox="0 0 750 487.13"><defs><style>.cls-1{fill:#281d25;}.cls-2{fill:#d3d54d;}.cls-3{fill:#add4c9;}.cls-4{fill:#fcfadb;}</style></defs><title>city</title><polygon class="cls-1" points="741.73 446.73 741.73 384.75 744.51 384.75 744.51 381.36 735.72 381.36 735.72 372.2 722.76 372.2 722.76 381.36 685.75 381.36 685.75 384.75 688.45 384.75 688.45 446.73 672.13 446.73 672.13 432.24 670.31 432.24 670.31 399.52 672.13 399.52 672.13 396.13 667.74 396.13 667.74 383.11 654.78 383.11 654.78 396.13 619.81 396.13 619.81 399.52 621.31 399.52 621.31 432.24 609.57 432.24 609.57 446.73 604.01 446.73 604.01 366.92 606.79 366.92 606.79 363.52 598 363.52 598 354.37 585.04 354.37 585.04 363.52 548.04 363.52 548.04 366.92 550.73 366.92 550.73 446.73 530 446.73 530 423.65 515.55 423.65 515.55 412.79 502.59 412.79 502.59 423.65 498.03 423.65 498.03 366.92 500.91 366.92 500.91 363.52 461.66 363.52 461.66 352.02 448.7 352.02 448.7 363.52 442.16 363.52 442.16 366.92 444.75 366.92 444.75 423.65 421.22 423.65 421.22 394.5 422.6 394.5 422.6 391.11 389.39 391.11 389.39 379.62 376.44 379.62 376.44 391.11 369.49 391.11 369.49 394.5 371.4 394.5 371.4 446.73 361.38 446.73 361.38 368.62 364.11 368.62 364.11 365.22 361.38 365.22 358.51 365.22 358.51 354.37 345.55 354.37 345.55 365.22 308.1 365.22 305.36 365.22 305.36 368.62 308.1 368.62 308.1 446.73 267.49 446.73 267.49 370.5 269.72 370.5 269.72 367.11 230.65 367.11 230.65 354.37 217.69 354.37 217.69 367.11 210.96 367.11 210.96 370.5 212.21 370.5 212.21 432.24 185.74 432.24 185.74 399.52 187.56 399.52 187.56 396.13 183.17 396.13 183.17 383.11 170.21 383.11 170.21 396.13 135.23 396.13 135.23 399.52 136.73 399.52 136.73 432.24 125 432.24 125 446.73 107.48 446.73 107.48 370.5 109.7 370.5 109.7 367.11 70.63 367.11 70.63 354.37 57.67 354.37 57.67 367.11 50.95 367.11 50.95 370.5 52.19 370.5 52.19 446.73 41.87 446.73 41.87 410.5 0 410.5 0 446.73 0 482.08 0 487.13 750 487.13 750 446.73 741.73 446.73"/><rect class="cls-1" x="266.46" y="449.75" width="113.91" height="32.33"/><rect class="cls-2" x="144.13" y="404.58" width="1.78" height="6.04"/><rect class="cls-2" x="147.31" y="404.58" width="1.78" height="6.04"/><rect class="cls-2" x="144.13" y="414.58" width="1.78" height="6.04"/><rect class="cls-2" x="147.31" y="414.58" width="1.78" height="6.04"/><rect class="cls-2" x="144.13" y="426.06" width="1.78" height="6.04"/><rect class="cls-2" x="147.31" y="426.06" width="1.78" height="6.04"/><rect class="cls-2" x="144.13" y="436.06" width="1.78" height="6.04"/><rect class="cls-2" x="147.31" y="436.06" width="1.78" height="6.04"/><rect class="cls-2" x="153.29" y="404.58" width="1.78" height="6.04"/><rect class="cls-2" x="156.47" y="404.58" width="1.78" height="6.04"/><rect class="cls-2" x="153.29" y="414.58" width="1.78" height="6.04"/><rect class="cls-2" x="156.47" y="414.58" width="1.78" height="6.04"/><rect class="cls-2" x="153.29" y="426.06" width="1.78" height="6.04"/><rect class="cls-2" x="156.47" y="426.06" width="1.78" height="6.04"/><rect class="cls-2" x="153.29" y="436.06" width="1.78" height="6.04"/><rect class="cls-2" x="156.47" y="436.06" width="1.78" height="6.04"/><rect class="cls-2" x="313.3" y="371.33" width="1.78" height="6.04"/><rect class="cls-2" x="316.47" y="371.33" width="1.78" height="6.04"/><rect class="cls-2" x="313.3" y="381.33" width="1.78" height="6.04"/><rect class="cls-2" x="316.47" y="381.33" width="1.78" height="6.04"/><rect class="cls-2" x="313.3" y="392.81" width="1.78" height="6.04"/><rect class="cls-2" x="316.47" y="392.81" width="1.78" height="6.04"/><rect class="cls-2" x="313.3" y="402.81" width="1.78" height="6.04"/><rect class="cls-2" x="316.47" y="402.81" width="1.78" height="6.04"/><rect class="cls-3" x="377.77" y="397.83" width="1.78" height="6.04"/><rect class="cls-3" x="380.95" y="397.83" width="1.78" height="6.04"/><rect class="cls-3" x="377.77" y="407.83" width="1.78" height="6.04"/><rect class="cls-3" x="380.95" y="407.83" width="1.78" height="6.04"/><rect class="cls-3" x="377.77" y="419.3" width="1.78" height="6.04"/><rect class="cls-3" x="380.95" y="419.3" width="1.78" height="6.04"/><rect class="cls-3" x="386.38" y="397.83" width="1.78" height="6.04"/><rect class="cls-3" x="389.56" y="397.83" width="1.78" height="6.04"/><rect class="cls-3" x="386.38" y="407.83" width="1.78" height="6.04"/><rect class="cls-3" x="389.56" y="407.83" width="1.78" height="6.04"/><rect class="cls-3" x="386.38" y="419.3" width="1.78" height="6.04"/><rect class="cls-3" x="389.56" y="419.3" width="1.78" height="6.04"/><rect class="cls-3" x="558.02" y="374.35" width="1.73" height="5.88"/><rect class="cls-3" x="561.11" y="374.35" width="1.73" height="5.88"/><rect class="cls-3" x="558.02" y="384.09" width="1.73" height="5.88"/><rect class="cls-3" x="561.11" y="384.09" width="1.73" height="5.88"/><rect class="cls-3" x="558.02" y="395.25" width="1.73" height="5.87"/><rect class="cls-3" x="561.11" y="395.25" width="1.73" height="5.87"/><rect class="cls-3" x="567.1" y="374.35" width="1.73" height="5.88"/><rect class="cls-3" x="570.19" y="374.35" width="1.73" height="5.88"/><rect class="cls-3" x="567.1" y="384.09" width="1.73" height="5.88"/><rect class="cls-3" x="570.19" y="384.09" width="1.73" height="5.88"/><rect class="cls-3" x="567.1" y="395.25" width="1.73" height="5.87"/><rect class="cls-3" x="570.19" y="395.25" width="1.73" height="5.87"/><rect class="cls-3" x="584.18" y="374.35" width="1.73" height="5.88"/><rect class="cls-3" x="587.27" y="374.35" width="1.73" height="5.88"/><rect class="cls-3" x="584.18" y="384.09" width="1.73" height="5.88"/><rect class="cls-3" x="587.27" y="384.09" width="1.73" height="5.88"/><rect class="cls-3" x="584.18" y="395.25" width="1.73" height="5.87"/><rect class="cls-3" x="587.27" y="395.25" width="1.73" height="5.87"/><rect class="cls-3" x="593.27" y="374.35" width="1.73" height="5.88"/><rect class="cls-3" x="596.36" y="374.35" width="1.73" height="5.88"/><rect class="cls-3" x="593.27" y="384.09" width="1.73" height="5.88"/><rect class="cls-3" x="596.36" y="384.09" width="1.73" height="5.88"/><rect class="cls-3" x="593.27" y="395.25" width="1.73" height="5.87"/><rect class="cls-3" x="596.36" y="395.25" width="1.73" height="5.87"/><rect class="cls-3" x="558.02" y="405.91" width="1.73" height="5.88"/><rect class="cls-3" x="561.11" y="405.91" width="1.73" height="5.88"/><rect class="cls-3" x="558.02" y="415.65" width="1.73" height="5.88"/><rect class="cls-3" x="561.11" y="415.65" width="1.73" height="5.88"/><rect class="cls-3" x="558.02" y="426.81" width="1.73" height="5.87"/><rect class="cls-3" x="561.11" y="426.81" width="1.73" height="5.87"/><rect class="cls-3" x="567.1" y="405.91" width="1.73" height="5.88"/><rect class="cls-3" x="570.19" y="405.91" width="1.73" height="5.88"/><rect class="cls-3" x="567.1" y="415.65" width="1.73" height="5.88"/><rect class="cls-3" x="570.19" y="415.65" width="1.73" height="5.88"/><rect class="cls-3" x="567.1" y="426.81" width="1.73" height="5.87"/><rect class="cls-3" x="570.19" y="426.81" width="1.73" height="5.87"/><rect class="cls-3" x="584.18" y="405.91" width="1.73" height="5.88"/><rect class="cls-3" x="587.27" y="405.91" width="1.73" height="5.88"/><rect class="cls-3" x="584.18" y="415.65" width="1.73" height="5.88"/><rect class="cls-3" x="587.27" y="415.65" width="1.73" height="5.88"/><rect class="cls-3" x="584.18" y="426.81" width="1.73" height="5.87"/><rect class="cls-3" x="587.27" y="426.81" width="1.73" height="5.87"/><rect class="cls-3" x="593.27" y="405.91" width="1.73" height="5.88"/><rect class="cls-3" x="596.36" y="405.91" width="1.73" height="5.88"/><rect class="cls-3" x="593.27" y="415.65" width="1.73" height="5.88"/><rect class="cls-3" x="596.36" y="415.65" width="1.73" height="5.88"/><rect class="cls-3" x="593.27" y="426.81" width="1.73" height="5.87"/><rect class="cls-3" x="596.36" y="426.81" width="1.73" height="5.87"/><rect class="cls-3" x="558.02" y="437.61" width="1.73" height="5.88"/><rect class="cls-3" x="561.11" y="437.61" width="1.73" height="5.88"/><rect class="cls-3" x="558.02" y="447.34" width="1.73" height="5.88"/><rect class="cls-3" x="561.11" y="447.34" width="1.73" height="5.88"/><rect class="cls-3" x="558.02" y="458.51" width="1.73" height="5.87"/><rect class="cls-3" x="561.11" y="458.51" width="1.73" height="5.87"/><rect class="cls-3" x="567.1" y="437.61" width="1.73" height="5.88"/><rect class="cls-3" x="570.19" y="437.61" width="1.73" height="5.88"/><rect class="cls-3" x="567.1" y="447.34" width="1.73" height="5.88"/><rect class="cls-3" x="570.19" y="447.34" width="1.73" height="5.88"/><rect class="cls-3" x="567.1" y="458.51" width="1.73" height="5.87"/><rect class="cls-3" x="570.19" y="458.51" width="1.73" height="5.87"/><rect class="cls-3" x="584.18" y="437.61" width="1.73" height="5.88"/><rect class="cls-3" x="587.27" y="437.61" width="1.73" height="5.88"/><rect class="cls-3" x="584.18" y="447.34" width="1.73" height="5.88"/><rect class="cls-3" x="587.27" y="447.34" width="1.73" height="5.88"/><rect class="cls-3" x="584.18" y="458.51" width="1.73" height="5.87"/><rect class="cls-3" x="587.27" y="458.51" width="1.73" height="5.87"/><rect class="cls-3" x="593.27" y="437.61" width="1.73" height="5.88"/><rect class="cls-3" x="596.36" y="437.61" width="1.73" height="5.88"/><rect class="cls-3" x="593.27" y="447.34" width="1.73" height="5.88"/><rect class="cls-3" x="596.36" y="447.34" width="1.73" height="5.88"/><rect class="cls-3" x="593.27" y="458.51" width="1.73" height="5.87"/><rect class="cls-3" x="596.36" y="458.51" width="1.73" height="5.87"/><rect class="cls-3" x="400.81" y="397.83" width="1.78" height="6.04"/><rect class="cls-3" x="403.98" y="397.83" width="1.78" height="6.04"/><rect class="cls-3" x="400.81" y="407.83" width="1.78" height="6.04"/><rect class="cls-3" x="403.98" y="407.83" width="1.78" height="6.04"/><rect class="cls-3" x="400.81" y="419.3" width="1.78" height="6.04"/><rect class="cls-3" x="403.98" y="419.3" width="1.78" height="6.04"/><rect class="cls-3" x="409.42" y="397.83" width="1.78" height="6.04"/><rect class="cls-3" x="412.59" y="397.83" width="1.78" height="6.04"/><rect class="cls-3" x="409.42" y="407.83" width="1.78" height="6.04"/><rect class="cls-3" x="412.59" y="407.83" width="1.78" height="6.04"/><rect class="cls-3" x="409.42" y="419.3" width="1.78" height="6.04"/><rect class="cls-3" x="412.59" y="419.3" width="1.78" height="6.04"/><rect class="cls-3" x="377.77" y="429.96" width="1.78" height="6.04"/><rect class="cls-3" x="380.95" y="429.96" width="1.78" height="6.04"/><rect class="cls-3" x="386.38" y="429.96" width="1.78" height="6.04"/><rect class="cls-3" x="389.56" y="429.96" width="1.78" height="6.04"/><rect class="cls-3" x="400.81" y="429.96" width="1.78" height="6.04"/><rect class="cls-3" x="403.98" y="429.96" width="1.78" height="6.04"/><rect class="cls-3" x="409.42" y="429.96" width="1.78" height="6.04"/><rect class="cls-3" x="412.59" y="429.96" width="1.78" height="6.04"/><rect class="cls-2" x="324.5" y="371.33" width="1.78" height="6.04"/><rect class="cls-2" x="327.68" y="371.33" width="1.78" height="6.04"/><rect class="cls-2" x="324.5" y="381.33" width="1.78" height="6.04"/><rect class="cls-2" x="327.68" y="381.33" width="1.78" height="6.04"/><rect class="cls-2" x="324.5" y="392.81" width="1.78" height="6.04"/><rect class="cls-2" x="327.68" y="392.81" width="1.78" height="6.04"/><rect class="cls-2" x="324.5" y="402.81" width="1.78" height="6.04"/><rect class="cls-2" x="327.68" y="402.81" width="1.78" height="6.04"/><rect class="cls-2" x="340.94" y="371.33" width="1.78" height="6.04"/><rect class="cls-2" x="344.12" y="371.33" width="1.78" height="6.04"/><rect class="cls-2" x="340.94" y="381.33" width="1.78" height="6.04"/><rect class="cls-2" x="344.12" y="381.33" width="1.78" height="6.04"/><rect class="cls-2" x="340.94" y="392.81" width="1.78" height="6.04"/><rect class="cls-2" x="344.12" y="392.81" width="1.78" height="6.04"/><rect class="cls-2" x="340.94" y="402.81" width="1.78" height="6.04"/><rect class="cls-2" x="344.12" y="402.81" width="1.78" height="6.04"/><rect class="cls-2" x="454.29" y="371.33" width="1.78" height="6.04"/><rect class="cls-2" x="457.47" y="371.33" width="1.78" height="6.04"/><rect class="cls-2" x="454.29" y="381.33" width="1.78" height="6.04"/><rect class="cls-2" x="457.47" y="381.33" width="1.78" height="6.04"/><rect class="cls-2" x="454.29" y="392.81" width="1.78" height="6.04"/><rect class="cls-2" x="457.47" y="392.81" width="1.78" height="6.04"/><rect class="cls-2" x="454.29" y="402.81" width="1.78" height="6.04"/><rect class="cls-2" x="457.47" y="402.81" width="1.78" height="6.04"/><rect class="cls-2" x="454.29" y="413.49" width="1.78" height="6.04"/><rect class="cls-2" x="457.47" y="413.49" width="1.78" height="6.04"/><rect class="cls-2" x="454.29" y="423.49" width="1.78" height="6.04"/><rect class="cls-2" x="457.47" y="423.49" width="1.78" height="6.04"/><rect class="cls-2" x="454.29" y="434.96" width="1.78" height="6.04"/><rect class="cls-2" x="457.47" y="434.96" width="1.78" height="6.04"/><rect class="cls-2" x="454.29" y="444.96" width="1.78" height="6.04"/><rect class="cls-2" x="457.47" y="444.96" width="1.78" height="6.04"/><rect class="cls-2" x="469.47" y="371.33" width="1.78" height="6.04"/><rect class="cls-2" x="472.65" y="371.33" width="1.78" height="6.04"/><rect class="cls-2" x="469.47" y="381.33" width="1.78" height="6.04"/><rect class="cls-2" x="472.65" y="381.33" width="1.78" height="6.04"/><rect class="cls-2" x="469.47" y="392.81" width="1.78" height="6.04"/><rect class="cls-2" x="472.65" y="392.81" width="1.78" height="6.04"/><rect class="cls-2" x="469.47" y="402.81" width="1.78" height="6.04"/><rect class="cls-2" x="472.65" y="402.81" width="1.78" height="6.04"/><rect class="cls-2" x="469.47" y="413.49" width="1.78" height="6.04"/><rect class="cls-2" x="472.65" y="413.49" width="1.78" height="6.04"/><rect class="cls-2" x="469.47" y="423.49" width="1.78" height="6.04"/><rect class="cls-2" x="472.65" y="423.49" width="1.78" height="6.04"/><rect class="cls-2" x="469.47" y="434.96" width="1.78" height="6.04"/><rect class="cls-2" x="472.65" y="434.96" width="1.78" height="6.04"/><rect class="cls-2" x="469.47" y="444.96" width="1.78" height="6.04"/><rect class="cls-2" x="472.65" y="444.96" width="1.78" height="6.04"/><rect class="cls-2" x="485.83" y="371.33" width="1.78" height="6.04"/><rect class="cls-2" x="489" y="371.33" width="1.78" height="6.04"/><rect class="cls-2" x="485.83" y="381.33" width="1.78" height="6.04"/><rect class="cls-2" x="489" y="381.33" width="1.78" height="6.04"/><rect class="cls-2" x="485.83" y="392.81" width="1.78" height="6.04"/><rect class="cls-2" x="489" y="392.81" width="1.78" height="6.04"/><rect class="cls-2" x="485.83" y="402.81" width="1.78" height="6.04"/><rect class="cls-2" x="489" y="402.81" width="1.78" height="6.04"/><rect class="cls-2" x="485.83" y="413.49" width="1.78" height="6.04"/><rect class="cls-2" x="489" y="413.49" width="1.78" height="6.04"/><rect class="cls-2" x="485.83" y="423.49" width="1.78" height="6.04"/><rect class="cls-2" x="489" y="423.49" width="1.78" height="6.04"/><rect class="cls-2" x="485.83" y="434.96" width="1.78" height="6.04"/><rect class="cls-2" x="489" y="434.96" width="1.78" height="6.04"/><rect class="cls-2" x="485.83" y="444.96" width="1.78" height="6.04"/><rect class="cls-2" x="489" y="444.96" width="1.78" height="6.04"/><rect class="cls-2" x="351.14" y="371.33" width="1.78" height="6.04"/><rect class="cls-2" x="354.32" y="371.33" width="1.78" height="6.04"/><rect class="cls-2" x="351.14" y="381.33" width="1.78" height="6.04"/><rect class="cls-2" x="354.32" y="381.33" width="1.78" height="6.04"/><rect class="cls-2" x="351.14" y="392.81" width="1.78" height="6.04"/><rect class="cls-2" x="354.32" y="392.81" width="1.78" height="6.04"/><rect class="cls-2" x="351.14" y="402.81" width="1.78" height="6.04"/><rect class="cls-2" x="354.32" y="402.81" width="1.78" height="6.04"/><rect class="cls-2" x="313.3" y="414.58" width="1.78" height="6.04"/><rect class="cls-2" x="316.47" y="414.58" width="1.78" height="6.04"/><rect class="cls-2" x="313.3" y="424.58" width="1.78" height="6.04"/><rect class="cls-2" x="316.47" y="424.58" width="1.78" height="6.04"/><rect class="cls-2" x="313.3" y="436.06" width="1.78" height="6.04"/><rect class="cls-2" x="316.47" y="436.06" width="1.78" height="6.04"/><rect class="cls-2" x="324.5" y="414.58" width="1.78" height="6.04"/><rect class="cls-2" x="327.68" y="414.58" width="1.78" height="6.04"/><rect class="cls-2" x="324.5" y="424.58" width="1.78" height="6.04"/><rect class="cls-2" x="327.68" y="424.58" width="1.78" height="6.04"/><rect class="cls-2" x="324.5" y="436.06" width="1.78" height="6.04"/><rect class="cls-2" x="327.68" y="436.06" width="1.78" height="6.04"/><rect class="cls-2" x="340.94" y="414.58" width="1.78" height="6.04"/><rect class="cls-2" x="344.12" y="414.58" width="1.78" height="6.04"/><rect class="cls-2" x="340.94" y="424.58" width="1.78" height="6.04"/><rect class="cls-2" x="344.12" y="424.58" width="1.78" height="6.04"/><rect class="cls-2" x="340.94" y="436.06" width="1.78" height="6.04"/><rect class="cls-2" x="344.12" y="436.06" width="1.78" height="6.04"/><rect class="cls-2" x="351.14" y="414.58" width="1.78" height="6.04"/><rect class="cls-2" x="354.32" y="414.58" width="1.78" height="6.04"/><rect class="cls-2" x="351.14" y="424.58" width="1.78" height="6.04"/><rect class="cls-2" x="354.32" y="424.58" width="1.78" height="6.04"/><rect class="cls-2" x="351.14" y="436.06" width="1.78" height="6.04"/><rect class="cls-2" x="354.32" y="436.06" width="1.78" height="6.04"/><rect class="cls-2" x="166.14" y="404.58" width="1.78" height="6.04"/><rect class="cls-2" x="169.32" y="404.58" width="1.78" height="6.04"/><rect class="cls-2" x="166.14" y="414.58" width="1.78" height="6.04"/><rect class="cls-2" x="169.32" y="414.58" width="1.78" height="6.04"/><rect class="cls-2" x="166.14" y="426.06" width="1.78" height="6.04"/><rect class="cls-2" x="169.32" y="426.06" width="1.78" height="6.04"/><rect class="cls-2" x="166.14" y="436.06" width="1.78" height="6.04"/><rect class="cls-2" x="169.32" y="436.06" width="1.78" height="6.04"/><rect class="cls-2" x="175.3" y="404.58" width="1.78" height="6.04"/><rect class="cls-2" x="178.48" y="404.58" width="1.78" height="6.04"/><rect class="cls-2" x="175.3" y="414.58" width="1.78" height="6.04"/><rect class="cls-2" x="178.48" y="414.58" width="1.78" height="6.04"/><rect class="cls-2" x="175.3" y="426.06" width="1.78" height="6.04"/><rect class="cls-2" x="178.48" y="426.06" width="1.78" height="6.04"/><rect class="cls-2" x="175.3" y="436.06" width="1.78" height="6.04"/><rect class="cls-2" x="178.48" y="436.06" width="1.78" height="6.04"/><rect class="cls-3" x="218.81" y="380.09" width="1.78" height="6.04"/><rect class="cls-3" x="221.99" y="380.09" width="1.78" height="6.04"/><rect class="cls-3" x="218.81" y="390.09" width="1.78" height="6.04"/><rect class="cls-3" x="221.99" y="390.09" width="1.78" height="6.04"/><rect class="cls-3" x="218.81" y="401.56" width="1.78" height="6.04"/><rect class="cls-3" x="221.99" y="401.56" width="1.78" height="6.04"/><rect class="cls-3" x="218.81" y="411.56" width="1.78" height="6.04"/><rect class="cls-3" x="221.99" y="411.56" width="1.78" height="6.04"/><rect class="cls-3" x="218.81" y="422.24" width="1.78" height="6.04"/><rect class="cls-3" x="221.99" y="422.24" width="1.78" height="6.04"/><rect class="cls-3" x="218.81" y="432.24" width="1.78" height="6.04"/><rect class="cls-3" x="221.99" y="432.24" width="1.78" height="6.04"/><rect class="cls-3" x="218.81" y="443.71" width="1.78" height="6.04"/><rect class="cls-3" x="221.99" y="443.71" width="1.78" height="6.04"/><rect class="cls-3" x="218.81" y="453.72" width="1.78" height="6.04"/><rect class="cls-3" x="221.99" y="453.72" width="1.78" height="6.04"/><rect class="cls-3" x="229.6" y="380.09" width="1.78" height="6.04"/><rect class="cls-3" x="232.77" y="380.09" width="1.78" height="6.04"/><rect class="cls-3" x="229.6" y="390.09" width="1.78" height="6.04"/><rect class="cls-3" x="232.77" y="390.09" width="1.78" height="6.04"/><rect class="cls-3" x="229.6" y="401.56" width="1.78" height="6.04"/><rect class="cls-3" x="232.77" y="401.56" width="1.78" height="6.04"/><rect class="cls-3" x="229.6" y="411.56" width="1.78" height="6.04"/><rect class="cls-3" x="232.77" y="411.56" width="1.78" height="6.04"/><rect class="cls-3" x="229.6" y="422.24" width="1.78" height="6.04"/><rect class="cls-3" x="232.77" y="422.24" width="1.78" height="6.04"/><rect class="cls-3" x="229.6" y="432.24" width="1.78" height="6.04"/><rect class="cls-3" x="232.77" y="432.24" width="1.78" height="6.04"/><rect class="cls-3" x="229.6" y="443.71" width="1.78" height="6.04"/><rect class="cls-3" x="232.77" y="443.71" width="1.78" height="6.04"/><rect class="cls-3" x="229.6" y="453.72" width="1.78" height="6.04"/><rect class="cls-3" x="232.77" y="453.72" width="1.78" height="6.04"/><rect class="cls-3" x="243.4" y="380.09" width="1.78" height="6.04"/><rect class="cls-3" x="246.57" y="380.09" width="1.78" height="6.04"/><rect class="cls-3" x="243.4" y="390.09" width="1.78" height="6.04"/><rect class="cls-3" x="246.57" y="390.09" width="1.78" height="6.04"/><rect class="cls-3" x="243.4" y="401.56" width="1.78" height="6.04"/><rect class="cls-3" x="246.57" y="401.56" width="1.78" height="6.04"/><rect class="cls-3" x="243.4" y="411.56" width="1.78" height="6.04"/><rect class="cls-3" x="246.57" y="411.56" width="1.78" height="6.04"/><rect class="cls-3" x="243.4" y="422.24" width="1.78" height="6.04"/><rect class="cls-3" x="246.57" y="422.24" width="1.78" height="6.04"/><rect class="cls-3" x="243.4" y="432.24" width="1.78" height="6.04"/><rect class="cls-3" x="246.57" y="432.24" width="1.78" height="6.04"/><rect class="cls-3" x="243.4" y="443.71" width="1.78" height="6.04"/><rect class="cls-3" x="246.57" y="443.71" width="1.78" height="6.04"/><rect class="cls-3" x="243.4" y="453.72" width="1.78" height="6.04"/><rect class="cls-3" x="246.57" y="453.72" width="1.78" height="6.04"/><rect class="cls-3" x="254.43" y="380.09" width="1.78" height="6.04"/><rect class="cls-3" x="257.6" y="380.09" width="1.78" height="6.04"/><rect class="cls-3" x="254.43" y="390.09" width="1.78" height="6.04"/><rect class="cls-3" x="257.6" y="390.09" width="1.78" height="6.04"/><rect class="cls-3" x="254.43" y="401.56" width="1.78" height="6.04"/><rect class="cls-3" x="257.6" y="401.56" width="1.78" height="6.04"/><rect class="cls-3" x="254.43" y="411.56" width="1.78" height="6.04"/><rect class="cls-3" x="257.6" y="411.56" width="1.78" height="6.04"/><rect class="cls-3" x="254.43" y="422.24" width="1.78" height="6.04"/><rect class="cls-3" x="257.6" y="422.24" width="1.78" height="6.04"/><rect class="cls-3" x="254.43" y="432.24" width="1.78" height="6.04"/><rect class="cls-3" x="257.6" y="432.24" width="1.78" height="6.04"/><rect class="cls-3" x="254.43" y="443.71" width="1.78" height="6.04"/><rect class="cls-3" x="257.6" y="443.71" width="1.78" height="6.04"/><rect class="cls-3" x="254.43" y="453.72" width="1.78" height="6.04"/><rect class="cls-3" x="257.6" y="453.72" width="1.78" height="6.04"/><rect class="cls-2" x="628.7" y="404.58" width="1.78" height="6.04"/><rect class="cls-2" x="631.88" y="404.58" width="1.78" height="6.04"/><rect class="cls-2" x="628.7" y="414.58" width="1.78" height="6.04"/><rect class="cls-2" x="631.88" y="414.58" width="1.78" height="6.04"/><rect class="cls-2" x="628.7" y="426.06" width="1.78" height="6.04"/><rect class="cls-2" x="631.88" y="426.06" width="1.78" height="6.04"/><rect class="cls-2" x="628.7" y="436.06" width="1.78" height="6.04"/><rect class="cls-2" x="631.88" y="436.06" width="1.78" height="6.04"/><rect class="cls-2" x="637.86" y="404.58" width="1.78" height="6.04"/><rect class="cls-2" x="641.04" y="404.58" width="1.78" height="6.04"/><rect class="cls-2" x="637.86" y="414.58" width="1.78" height="6.04"/><rect class="cls-2" x="641.04" y="414.58" width="1.78" height="6.04"/><rect class="cls-2" x="637.86" y="426.06" width="1.78" height="6.04"/><rect class="cls-2" x="641.04" y="426.06" width="1.78" height="6.04"/><rect class="cls-2" x="637.86" y="436.06" width="1.78" height="6.04"/><rect class="cls-2" x="641.04" y="436.06" width="1.78" height="6.04"/><rect class="cls-2" x="650.72" y="404.58" width="1.78" height="6.04"/><rect class="cls-2" x="653.89" y="404.58" width="1.78" height="6.04"/><rect class="cls-2" x="650.72" y="414.58" width="1.78" height="6.04"/><rect class="cls-2" x="653.89" y="414.58" width="1.78" height="6.04"/><rect class="cls-2" x="650.72" y="426.06" width="1.78" height="6.04"/><rect class="cls-2" x="653.89" y="426.06" width="1.78" height="6.04"/><rect class="cls-2" x="650.72" y="436.06" width="1.78" height="6.04"/><rect class="cls-2" x="653.89" y="436.06" width="1.78" height="6.04"/><rect class="cls-2" x="659.87" y="404.58" width="1.78" height="6.04"/><rect class="cls-2" x="663.05" y="404.58" width="1.78" height="6.04"/><rect class="cls-2" x="659.87" y="414.58" width="1.78" height="6.04"/><rect class="cls-2" x="663.05" y="414.58" width="1.78" height="6.04"/><rect class="cls-2" x="659.87" y="426.06" width="1.78" height="6.04"/><rect class="cls-2" x="663.05" y="426.06" width="1.78" height="6.04"/><rect class="cls-2" x="659.87" y="436.06" width="1.78" height="6.04"/><rect class="cls-2" x="663.05" y="436.06" width="1.78" height="6.04"/><rect class="cls-3" x="58.79" y="380.09" width="1.78" height="6.04"/><rect class="cls-3" x="61.97" y="380.09" width="1.78" height="6.04"/><rect class="cls-3" x="58.79" y="390.09" width="1.78" height="6.04"/><rect class="cls-3" x="61.97" y="390.09" width="1.78" height="6.04"/><rect class="cls-3" x="58.79" y="401.56" width="1.78" height="6.04"/><rect class="cls-3" x="61.97" y="401.56" width="1.78" height="6.04"/><rect class="cls-3" x="58.79" y="411.56" width="1.78" height="6.04"/><rect class="cls-3" x="61.97" y="411.56" width="1.78" height="6.04"/><rect class="cls-3" x="58.79" y="422.24" width="1.78" height="6.04"/><rect class="cls-3" x="61.97" y="422.24" width="1.78" height="6.04"/><rect class="cls-3" x="58.79" y="432.24" width="1.78" height="6.04"/><rect class="cls-3" x="61.97" y="432.24" width="1.78" height="6.04"/><rect class="cls-3" x="58.79" y="443.71" width="1.78" height="6.04"/><rect class="cls-3" x="61.97" y="443.71" width="1.78" height="6.04"/><rect class="cls-3" x="58.79" y="453.72" width="1.78" height="6.04"/><rect class="cls-3" x="61.97" y="453.72" width="1.78" height="6.04"/><rect class="cls-3" x="69.58" y="380.09" width="1.78" height="6.04"/><rect class="cls-3" x="72.76" y="380.09" width="1.78" height="6.04"/><rect class="cls-3" x="69.58" y="390.09" width="1.78" height="6.04"/><rect class="cls-3" x="72.76" y="390.09" width="1.78" height="6.04"/><rect class="cls-3" x="69.58" y="401.56" width="1.78" height="6.04"/><rect class="cls-3" x="72.76" y="401.56" width="1.78" height="6.04"/><rect class="cls-3" x="69.58" y="411.56" width="1.78" height="6.04"/><rect class="cls-3" x="72.76" y="411.56" width="1.78" height="6.04"/><rect class="cls-3" x="69.58" y="422.24" width="1.78" height="6.04"/><rect class="cls-3" x="72.76" y="422.24" width="1.78" height="6.04"/><rect class="cls-3" x="69.58" y="432.24" width="1.78" height="6.04"/><rect class="cls-3" x="72.76" y="432.24" width="1.78" height="6.04"/><rect class="cls-3" x="69.58" y="443.71" width="1.78" height="6.04"/><rect class="cls-3" x="72.76" y="443.71" width="1.78" height="6.04"/><rect class="cls-3" x="69.58" y="453.72" width="1.78" height="6.04"/><rect class="cls-3" x="72.76" y="453.72" width="1.78" height="6.04"/><rect class="cls-3" x="83.38" y="380.09" width="1.78" height="6.04"/><rect class="cls-3" x="86.56" y="380.09" width="1.78" height="6.04"/><rect class="cls-3" x="83.38" y="390.09" width="1.78" height="6.04"/><rect class="cls-3" x="86.56" y="390.09" width="1.78" height="6.04"/><rect class="cls-3" x="83.38" y="401.56" width="1.78" height="6.04"/><rect class="cls-3" x="86.56" y="401.56" width="1.78" height="6.04"/><rect class="cls-3" x="83.38" y="411.56" width="1.78" height="6.04"/><rect class="cls-3" x="86.56" y="411.56" width="1.78" height="6.04"/><rect class="cls-3" x="83.38" y="422.24" width="1.78" height="6.04"/><rect class="cls-3" x="86.56" y="422.24" width="1.78" height="6.04"/><rect class="cls-3" x="83.38" y="432.24" width="1.78" height="6.04"/><rect class="cls-3" x="86.56" y="432.24" width="1.78" height="6.04"/><rect class="cls-3" x="83.38" y="443.71" width="1.78" height="6.04"/><rect class="cls-3" x="86.56" y="443.71" width="1.78" height="6.04"/><rect class="cls-3" x="83.38" y="453.72" width="1.78" height="6.04"/><rect class="cls-3" x="86.56" y="453.72" width="1.78" height="6.04"/><rect class="cls-3" x="94.41" y="380.09" width="1.78" height="6.04"/><rect class="cls-3" x="97.59" y="380.09" width="1.78" height="6.04"/><rect class="cls-3" x="94.41" y="390.09" width="1.78" height="6.04"/><rect class="cls-3" x="97.59" y="390.09" width="1.78" height="6.04"/><rect class="cls-3" x="94.41" y="401.56" width="1.78" height="6.04"/><rect class="cls-3" x="97.59" y="401.56" width="1.78" height="6.04"/><rect class="cls-3" x="94.41" y="411.56" width="1.78" height="6.04"/><rect class="cls-3" x="97.59" y="411.56" width="1.78" height="6.04"/><rect class="cls-3" x="94.41" y="422.24" width="1.78" height="6.04"/><rect class="cls-3" x="97.59" y="422.24" width="1.78" height="6.04"/><rect class="cls-3" x="94.41" y="432.24" width="1.78" height="6.04"/><rect class="cls-3" x="97.59" y="432.24" width="1.78" height="6.04"/><rect class="cls-3" x="94.41" y="443.71" width="1.78" height="6.04"/><rect class="cls-3" x="97.59" y="443.71" width="1.78" height="6.04"/><rect class="cls-3" x="94.41" y="453.72" width="1.78" height="6.04"/><rect class="cls-3" x="97.59" y="453.72" width="1.78" height="6.04"/><rect class="cls-3" x="695.73" y="392.18" width="1.73" height="5.88"/><rect class="cls-3" x="698.82" y="392.18" width="1.73" height="5.88"/><rect class="cls-3" x="695.73" y="401.92" width="1.73" height="5.88"/><rect class="cls-3" x="698.82" y="401.92" width="1.73" height="5.88"/><rect class="cls-3" x="695.73" y="413.09" width="1.73" height="5.87"/><rect class="cls-3" x="698.82" y="413.09" width="1.73" height="5.87"/><rect class="cls-3" x="704.82" y="392.18" width="1.73" height="5.88"/><rect class="cls-3" x="707.91" y="392.18" width="1.73" height="5.88"/><rect class="cls-3" x="704.82" y="401.92" width="1.73" height="5.88"/><rect class="cls-3" x="707.91" y="401.92" width="1.73" height="5.88"/><rect class="cls-3" x="704.82" y="413.09" width="1.73" height="5.87"/><rect class="cls-3" x="707.91" y="413.09" width="1.73" height="5.87"/><rect class="cls-3" x="721.89" y="392.18" width="1.73" height="5.88"/><rect class="cls-3" x="724.99" y="392.18" width="1.73" height="5.88"/><rect class="cls-3" x="721.89" y="401.92" width="1.73" height="5.88"/><rect class="cls-3" x="724.99" y="401.92" width="1.73" height="5.88"/><rect class="cls-3" x="721.89" y="413.09" width="1.73" height="5.87"/><rect class="cls-3" x="724.99" y="413.09" width="1.73" height="5.87"/><rect class="cls-3" x="730.98" y="392.18" width="1.73" height="5.88"/><rect class="cls-3" x="734.07" y="392.18" width="1.73" height="5.88"/><rect class="cls-3" x="730.98" y="401.92" width="1.73" height="5.88"/><rect class="cls-3" x="734.07" y="401.92" width="1.73" height="5.88"/><rect class="cls-3" x="730.98" y="413.09" width="1.73" height="5.87"/><rect class="cls-3" x="734.07" y="413.09" width="1.73" height="5.87"/><rect class="cls-3" x="695.73" y="423.75" width="1.73" height="5.88"/><rect class="cls-3" x="698.82" y="423.75" width="1.73" height="5.88"/><rect class="cls-3" x="695.73" y="433.48" width="1.73" height="5.88"/><rect class="cls-3" x="698.82" y="433.48" width="1.73" height="5.88"/><rect class="cls-3" x="695.73" y="444.65" width="1.73" height="5.87"/><rect class="cls-3" x="698.82" y="444.65" width="1.73" height="5.87"/><rect class="cls-3" x="704.82" y="423.75" width="1.73" height="5.88"/><rect class="cls-3" x="707.91" y="423.75" width="1.73" height="5.88"/><rect class="cls-3" x="704.82" y="433.48" width="1.73" height="5.88"/><rect class="cls-3" x="707.91" y="433.48" width="1.73" height="5.88"/><rect class="cls-3" x="704.82" y="444.65" width="1.73" height="5.87"/><rect class="cls-3" x="707.91" y="444.65" width="1.73" height="5.87"/><rect class="cls-3" x="721.89" y="423.75" width="1.73" height="5.88"/><rect class="cls-3" x="724.99" y="423.75" width="1.73" height="5.88"/><rect class="cls-3" x="721.89" y="433.48" width="1.73" height="5.88"/><rect class="cls-3" x="724.99" y="433.48" width="1.73" height="5.88"/><rect class="cls-3" x="721.89" y="444.65" width="1.73" height="5.87"/><rect class="cls-3" x="724.99" y="444.65" width="1.73" height="5.87"/><rect class="cls-3" x="730.98" y="423.75" width="1.73" height="5.88"/><rect class="cls-3" x="734.07" y="423.75" width="1.73" height="5.88"/><rect class="cls-3" x="730.98" y="433.48" width="1.73" height="5.88"/><rect class="cls-3" x="734.07" y="433.48" width="1.73" height="5.88"/><rect class="cls-3" x="730.98" y="444.65" width="1.73" height="5.87"/><rect class="cls-3" x="734.07" y="444.65" width="1.73" height="5.87"/><circle class="cls-4" cx="147.59" cy="312.46" r="0.8"/><circle class="cls-4" cx="152.72" cy="347.33" r="0.8"/><circle class="cls-4" cx="199.49" cy="323.81" r="0.8"/><circle class="cls-4" cx="223.76" cy="278.18" r="0.8"/><circle class="cls-4" cx="45.33" cy="338.95" r="0.8"/><circle class="cls-4" cx="625.2" cy="378.71" r="0.8"/><circle class="cls-4" cx="281.67" cy="331.58" r="0.8"/><circle class="cls-4" cx="315.07" cy="221.79" r="0.8"/><circle class="cls-4" cx="289.78" cy="173.21" r="0.8"/><circle class="cls-4" cx="149.08" cy="138.77" r="0.8"/><circle class="cls-4" cx="31.2" cy="260.59" r="0.8"/><circle class="cls-4" cx="31.2" cy="200.03" r="0.8"/><circle class="cls-4" cx="20.93" cy="373.56" r="0.8"/><circle class="cls-4" cx="75.33" cy="134.88" r="0.8"/><circle class="cls-4" cx="71.36" cy="229.29" r="0.8"/><circle class="cls-4" cx="59.68" cy="72.66" r="0.8"/><circle class="cls-4" cx="74.53" cy="25.89" r="0.8"/><circle class="cls-4" cx="36.4" cy="25.1" r="0.8"/><circle class="cls-4" cx="37.2" cy="144.14" r="0.8"/><circle class="cls-4" cx="113.86" cy="92.71" r="0.8"/><circle class="cls-4" cx="113.86" cy="180.62" r="0.8"/><circle class="cls-4" cx="94.41" cy="277.39" r="0.8"/><circle class="cls-4" cx="645.97" cy="147.03" r="0.8"/><circle class="cls-4" cx="489.89" cy="8.31" r="0.8"/><circle class="cls-4" cx="633.66" cy="80.08" r="0.8"/><circle class="cls-4" cx="652.49" cy="13.39" r="0.8"/><circle class="cls-4" cx="715.13" cy="22.81" r="0.8"/><circle class="cls-4" cx="697.46" cy="72.71" r="0.8"/><circle class="cls-4" cx="715.93" cy="105.91" r="0.8"/><circle class="cls-4" cx="679.73" cy="172.41" r="0.8"/><circle class="cls-4" cx="714.33" cy="233.44" r="0.8"/><circle class="cls-4" cx="625.2" cy="211.44" r="0.8"/><circle class="cls-4" cx="634.45" cy="272.63" r="0.8"/><circle class="cls-4" cx="685.75" cy="240.75" r="0.8"/><circle class="cls-4" cx="713.54" cy="303.41" r="0.8"/><circle class="cls-4" cx="684.96" cy="351.22" r="0.8"/><circle class="cls-4" cx="650.72" cy="323.46" r="0.8"/><circle class="cls-4" cx="156.47" cy="47.56" r="0.8"/><circle class="cls-4" cx="305.36" cy="0.8" r="0.8"/><circle class="cls-4" cx="330.46" cy="37.31" r="0.8"/><circle class="cls-4" cx="393.36" cy="11.06" r="0.8"/><circle class="cls-4" cx="444.75" cy="34.05" r="0.8"/><circle class="cls-4" cx="374.06" cy="41.19" r="0.8"/><circle class="cls-4" cx="584.18" cy="12.19" r="0.8"/><circle class="cls-4" cx="604.01" cy="63.28" r="0.8"/><circle class="cls-4" cx="475.14" cy="137.36" r="0.8"/><circle class="cls-4" cx="526.2" cy="144.94" r="0.8"/><circle class="cls-4" cx="606.79" cy="26.69" r="0.8"/><circle class="cls-4" cx="602.42" cy="164.87" r="0.8"/><circle class="cls-4" cx="601.63" cy="278.54" r="0.8"/><circle class="cls-4" cx="591.52" cy="322.66" r="0.8"/><circle class="cls-4" cx="531.93" cy="331.58" r="0.8"/><circle class="cls-4" cx="475.14" cy="276.59" r="0.8"/><circle class="cls-4" cx="458.36" cy="313.7" r="0.8"/><circle class="cls-4" cx="487.6" cy="311.67" r="0.8"/><circle class="cls-4" cx="242.08" cy="140.85" r="0.8"/><circle class="cls-4" cx="528.18" cy="374.35" r="0.8"/><circle class="cls-4" cx="440.21" cy="219.94" r="0.8"/><circle class="cls-4" cx="448.7" cy="188.7" r="0.8"/><circle class="cls-4" cx="406.95" cy="352.01" r="0.8"/><circle class="cls-4" cx="603.22" cy="116.84" r="0.8"/><circle class="cls-4" cx="564" cy="140.3" r="0.8"/></svg>